<svg width="750" height="630.455" xmlns="http://www.w3.org/2000/svg">

 <g>
  <title>background</title>
  <rect fill="none" id="canvas_background" height="402" width="582" y="-1" x="-1"/>
 </g>
 <g>
  <title>Layer 1</title>
  <g id="Layer_1">
   <g id="svg_1">
    <path id="svg_2" d="m664.368,213.96c-6.72,-16.682 -20.542,-20.877 -21.818,-22.003c-11.701,-10.336 -2.474,-21.214 -19.946,-30.695c-18.28,-9.914 -71.979,-36.997 -114.22,-31.375c-9.225,1.235 -27.837,17.608 -41.214,17.608c-21.865,0 -92.165,0 -92.165,0s-70.3,0 -92.165,0c-13.377,0 -31.99,-16.374 -41.215,-17.608c-42.248,-5.622 -95.939,21.461 -114.22,31.375c-17.472,9.481 -8.243,20.359 -19.941,30.695c-1.281,1.125 -15.104,5.321 -21.823,22.003c-62.752,156.023 -87.382,255.154 -85.546,315.169c2.891,94.416 76.578,101.326 76.578,101.326c37.033,-8.617 111.55,-129.135 168.535,-129.135c31.16,0 129.797,0 129.797,0s98.637,0 129.797,0c56.985,0 131.502,120.518 168.538,129.135c0,0 73.678,-6.91 76.563,-101.326c1.864,-60.015 -22.81,-159.146 -85.535,-315.169z" fill="#9B4B0A"/>
    <path id="svg_3" d="m548.358,114.946l50.436,6.849c-12.065,-116.821 -42.972,-111.033 -49.714,-116.329c-0.402,-0.319 -0.805,-0.618 -1.211,-0.899c-6.416,-4.476 -13.566,-4.873 -25.826,-4.425c-10.823,0.403 -12.063,11.439 -12.182,15.19l0,1.227c0,0 2.899,40.716 0,93.094c9.787,2.256 37.718,5.211 38.497,5.293z" fill="#9B4B0A"/>
    <path id="svg_4" d="m201.676,114.95c0,0 28.613,-3.009 38.539,-5.298c-2.901,-52.378 0,-93.094 0,-93.094l0,-1.227c-0.124,-3.751 -1.36,-14.787 -12.193,-15.19c-12.249,-0.448 -19.398,-0.051 -25.815,4.425c-0.407,0.281 -0.811,0.58 -1.211,0.899c-6.756,5.296 -37.648,-0.492 -49.715,116.329l50.395,-6.846l0,0.002l0,0z" fill="#9B4B0A"/>
   </g>
   <g id="svg_5">
    <path id="svg_6" d="m201.504,317.808l30.83,0l0,-12.236l-26.044,0l0,-5.4l26.045,0l0,-12.339c-8.636,0.342 -17.409,0.627 -26.318,0.854c-0.273,-1.914 -0.615,-3.782 -1.025,-5.605c23.288,-0.364 42.178,-1.185 56.67,-2.461l0.889,5.605c-8.021,0.501 -16.179,0.946 -24.473,1.333l0,12.612l24.814,0l0,5.4l-24.814,0l0,12.236l30.693,0l0,5.4l-30.693,0l0,12.578c0,5.537 -2.826,8.34 -8.477,8.408c-2.871,0 -6.859,-0.023 -11.963,-0.068c-0.228,-2.097 -0.593,-4.17 -1.094,-6.221c5.104,0.364 8.955,0.547 11.553,0.547c2.825,0 4.238,-1.527 4.238,-4.58l0,-10.664l-30.83,0l0,-5.399l-0.001,0z" fill="#FFFFFF"/>
    <path id="svg_7" d="m285.723,307.28l1.914,-1.914c3.235,2.917 6.084,5.583 8.545,7.998l-3.623,3.76c-1.687,-1.959 -3.965,-4.443 -6.836,-7.451l0,35.752l-4.717,0l0,-35.479c-2.233,7.064 -4.876,12.897 -7.93,17.5c-0.593,-1.959 -1.322,-3.965 -2.188,-6.016c4.739,-7.474 8.089,-15.563 10.049,-24.268l-9.57,0l0,-4.58l9.639,0l0,-13.535l4.717,0l0,13.535l8.887,0l0,4.58l-8.887,0l0,10.118zm41.426,21.67c-2.962,-4.146 -6.517,-8.636 -10.664,-13.467c-2.37,6.198 -6.175,11.621 -11.416,16.27c-0.775,-1.048 -1.641,-2.142 -2.598,-3.281l0,16.748l-5.195,0l0,-46.826l16.953,0c0.045,-2.962 0.091,-6.448 0.137,-10.459l-19.482,0l0,-4.785l43.887,0l0,4.785l-19.141,0c-0.046,3.691 -0.114,7.178 -0.205,10.459l17.158,0l0,38.76c0,4.876 -2.393,7.337 -7.178,7.383c-2.598,0.045 -6.016,0.022 -10.254,-0.068c-0.228,-1.459 -0.57,-3.145 -1.025,-5.059c3.965,0.318 6.995,0.455 9.092,0.41c2.78,0 4.17,-1.162 4.17,-3.486l0,-11.006l-4.239,3.622zm-24.678,-2.392c6.836,-5.97 10.687,-13.899 11.553,-23.789l-11.553,0l0,23.789zm15.654,-16.68c4.329,4.648 8.75,9.707 13.262,15.176l0,-22.285l-12.168,0c-0.182,2.506 -0.547,4.876 -1.094,7.109z" fill="#FFFFFF"/>
    <path id="svg_8" d="m409.18,334.897c-1.275,1.549 -2.553,3.235 -3.828,5.059c-12.008,-5.992 -21.236,-13.74 -27.686,-23.242l0,28.574l-5.332,0l0,-28.506c-6.927,9.184 -16.179,17.182 -27.754,23.994c-0.866,-1.23 -2.097,-2.758 -3.691,-4.58c12.373,-6.494 22.148,-14.31 29.326,-23.447l-28.232,0l0,-5.059l30.352,0l0,-12.852l-26.318,0l0,-5.059l26.318,0l0,-11.689l5.332,0l0,11.689l26.592,0l0,5.059l-26.592,0l0,12.852l30.352,0l0,5.059l-28.439,0c7.338,9.799 17.203,17.182 29.6,22.148z" fill="#FFFFFF"/>
    <path id="svg_9" d="m438.984,338.657l14.014,0.342l26.113,-0.615c-0.775,1.822 -1.527,3.577 -2.256,5.264l-23.721,0.273l-14.766,-0.342c-7.338,-0.092 -12.828,-2.689 -16.475,-7.793c-1.322,1.048 -3.988,3.965 -7.998,8.75l-2.939,-5.811c2.848,-2.574 5.674,-5.059 8.477,-7.451l0,-23.857l-7.793,0l0,-4.99l13.125,0l0,29.839c3.327,4.055 8.067,6.186 14.219,6.391zm-19.619,-59.267c3.145,3.965 6.176,8.044 9.092,12.236l-4.854,3.418c-2.689,-4.284 -5.561,-8.522 -8.613,-12.715l4.375,-2.939zm10.869,41.699l22.969,0l0,-9.502l-19.893,0l0,-4.854c2.779,-4.854 5.309,-10.003 7.588,-15.449l-9.844,0l0,-4.785l11.758,0c1.094,-2.871 2.119,-5.811 3.076,-8.818l5.742,1.23c-0.98,2.575 -1.982,5.104 -3.008,7.588l27.959,0l0,4.785l-29.941,0c-2.324,5.423 -4.717,10.596 -7.178,15.518l13.74,0l0,-11.826l5.469,0l0,11.826l17.5,0l0,4.785l-17.5,0l0,9.502l19.414,0l0,4.785l-19.414,0l0,11.279l-5.469,0l0,-11.279l-22.969,0l0,-4.785l0.001,0z" fill="#FFFFFF"/>
    <path id="svg_10" d="m481.094,314.8c3.236,-0.889 6.381,-1.789 9.434,-2.7l0,-15.62l-8.613,0l0,-4.922l8.613,0l0,-12.783l5.059,0l0,12.783l7.861,0l0,4.922l-7.861,0l0,14.048c2.164,-0.684 4.283,-1.378 6.357,-2.085c0.045,2.051 0.182,3.828 0.41,5.332c-2.348,0.752 -4.604,1.493 -6.768,2.222l0,21.089c0,4.922 -2.211,7.405 -6.631,7.451c-1.686,0.045 -3.828,0.022 -6.426,-0.068c-0.182,-1.869 -0.455,-3.76 -0.82,-5.674c2.734,0.273 4.672,0.41 5.811,0.41c2.006,0 3.008,-1.208 3.008,-3.623l0,-17.91c-3.121,1.049 -6.039,2.051 -8.75,3.008l-0.684,-5.88zm18.594,25.498c8.887,-1.299 16.121,-3.441 21.705,-6.426c-4.262,-1.914 -8.83,-3.919 -13.707,-6.016c1.959,-2.529 3.771,-5.059 5.436,-7.588l-11.246,0l0,-4.58l14.117,0c1.457,-2.461 2.791,-4.922 3.998,-7.383l5.059,2.119c-1.094,1.823 -2.176,3.578 -3.246,5.264l26.283,0l0,4.58l-8.988,0c-1.801,5.014 -4.467,9.24 -7.998,12.681c5.811,2.415 11.449,4.819 16.918,7.212l-3.008,5.059c-5.127,-2.712 -11.166,-5.674 -18.115,-8.887c-6.107,4.146 -14.311,7.2 -24.609,9.16c-0.641,-1.504 -1.506,-3.236 -2.599,-5.195zm2.392,-37.598l26.627,0c2.893,-4.01 5.457,-7.77 7.689,-11.279l5.127,2.803c-2.369,2.849 -4.773,5.674 -7.211,8.477l14.252,0l0,4.58l-46.484,0l0,-4.581zm2.666,-16.611l19.313,0c-1.072,-2.073 -2.199,-4.124 -3.385,-6.152l4.58,-2.119c1.459,2.461 2.848,4.945 4.17,7.451l-1.742,0.82l19.242,0l0,4.58l-42.178,0l0,-4.58zm6.152,8.066l3.965,-2.666c2.143,2.507 4.215,5.15 6.221,7.93l-4.375,2.939c-1.732,-2.825 -3.668,-5.559 -5.811,-8.203zm3.897,32.198c3.805,1.504 7.531,3.008 11.178,4.512c3.576,-2.894 6.117,-6.426 7.621,-10.596l-14.73,0c-1.391,2.119 -2.747,4.147 -4.069,6.084z" fill="#FFFFFF"/>
   </g>
   <g id="svg_11">
    <path id="svg_12" d="m248.458,431.555c-4.258,-4.974 -6.387,-11.101 -6.387,-18.379c0,-7.591 2.161,-13.841 6.484,-18.75l2.051,0c-4.401,5.065 -6.602,11.302 -6.602,18.711c0,6.992 2.174,13.132 6.523,18.418l-2.069,0z" fill="#FFFFFF"/>
    <path id="svg_13" d="m256.446,414.875l-0.371,-2.188c0.729,-0.208 1.842,-0.534 3.34,-0.977c0.938,-0.273 1.641,-0.481 2.109,-0.625l0,-9.492l-5,0l0,-1.914l5,0l0,-7.637l2.07,0l0,7.637l4.199,0l0,1.914l-4.199,0l0,8.848c0.364,-0.117 0.931,-0.3 1.699,-0.547c1.133,-0.352 1.979,-0.625 2.539,-0.82c0,0.769 0.059,1.465 0.176,2.09c-0.547,0.156 -1.374,0.41 -2.48,0.762c-0.859,0.261 -1.504,0.456 -1.934,0.586l0,12.695c0.117,2.461 -1.068,3.711 -3.555,3.75c-0.938,0.052 -1.927,0.078 -2.969,0.078c-0.104,-0.808 -0.234,-1.55 -0.391,-2.227c0.794,0.078 1.771,0.117 2.93,0.117c1.328,0.052 1.966,-0.534 1.914,-1.758l0,-11.973c-2.252,0.744 -3.944,1.303 -5.077,1.681zm12.949,-5.957l5.957,0c1.016,-2.214 1.927,-4.466 2.734,-6.758l2.148,0.645c-0.078,0.169 -0.189,0.43 -0.332,0.781c-1.003,2.383 -1.771,4.16 -2.305,5.332l16.113,0l0,1.953l-4.824,0c-1.237,4.519 -3.171,8.066 -5.801,10.645c3.45,1.875 6.914,3.782 10.391,5.723l-1.406,1.875c-4.714,-2.825 -8.229,-4.876 -10.547,-6.152c-3.112,2.539 -7.728,4.727 -13.848,6.563c-0.248,-0.508 -0.658,-1.191 -1.23,-2.051c5.729,-1.445 10.098,-3.308 13.105,-5.586c-2.5,-1.419 -5.326,-2.969 -8.477,-4.648c1.055,-1.667 2.188,-3.789 3.398,-6.367l-5.078,0l0,-1.955l0.002,0zm9.375,-16.074l1.875,-0.84c0.911,1.55 1.816,3.203 2.715,4.961l-1.719,0.762l11.191,0l0,6.426l-2.031,0l0,-4.473l-18.672,0l0,4.473l-2.051,0l0,-6.426l11.25,0c-0.599,-1.289 -1.452,-2.917 -2.558,-4.883zm-4.922,23.75c0.664,0.364 1.699,0.918 3.105,1.66c1.862,0.977 3.274,1.731 4.238,2.266c2.565,-2.37 4.395,-5.586 5.488,-9.648l-10,0c-0.924,1.979 -1.867,3.886 -2.831,5.722z" fill="#FFFFFF"/>
    <path id="svg_14" d="m296.915,412.922c-0.3,-0.847 -0.619,-1.647 -0.957,-2.402c3.919,-5.352 7.051,-11.472 9.395,-18.359l2.168,0.684c-1.198,3.203 -2.409,6.055 -3.633,8.555l0,28.164l-2.09,0l0,-24.16c-1.68,2.967 -3.308,5.474 -4.883,7.518zm11.855,12.324l11.543,0l0,-13.281l-12.227,0l0,-2.051l12.227,0l0,-12.637c-3.242,0.234 -6.706,0.449 -10.391,0.645c-0.052,-0.729 -0.156,-1.413 -0.313,-2.051c8.242,-0.378 15.677,-0.938 22.305,-1.68l0.449,2.09c-3.607,0.364 -6.901,0.645 -9.883,0.84l0,12.793l11.563,0l0,2.051l-11.563,0l0,13.281l10.996,0l0,1.992l-24.706,0l0,-1.992z" fill="#FFFFFF"/>
    <path id="svg_15" d="m340.567,420.441l1.914,0.918c-1.654,2.644 -3.132,4.831 -4.434,6.563c-0.625,-0.456 -1.244,-0.859 -1.855,-1.211c1.484,-1.771 2.942,-3.86 4.375,-6.27zm12.676,-28.242l1.992,-0.488c0.417,1.211 0.846,2.52 1.289,3.926l14.668,0l0,1.719l-7.793,0l1.484,0.762c-0.052,0.065 -0.144,0.176 -0.273,0.332c-1.146,1.433 -2.031,2.493 -2.656,3.184l11.68,0l0,1.719l-37.305,0l0,-1.719l11.543,0c-1.042,-1.289 -1.986,-2.435 -2.832,-3.438l1.152,-0.84l-7.422,0l0,-1.719l15.586,0c-0.209,-0.742 -0.58,-1.888 -1.113,-3.438zm-11.875,14.121l26.953,0l0,11.68l-26.953,0l0,-11.68zm2.07,1.719l0,3.242l22.793,0l0,-3.242l-22.793,0zm0,4.922l0,3.32l22.793,0l0,-3.32l-22.793,0zm2.324,7.109l2.07,0l0,3.496c-0.013,1.224 0.202,2.019 0.645,2.383c0.403,0.391 1.295,0.579 2.676,0.566l7.617,0c2.227,0.117 3.502,-0.625 3.828,-2.227c0.234,-0.911 0.462,-1.992 0.684,-3.242c0.521,0.247 1.185,0.501 1.992,0.762c-0.234,1.354 -0.501,2.461 -0.801,3.32c-0.573,2.227 -2.305,3.301 -5.195,3.223l-8.711,0c-1.836,0.013 -3.093,-0.313 -3.77,-0.977c-0.703,-0.638 -1.048,-1.816 -1.035,-3.535l0,-3.769zm4.121,-19.277l-1.289,0.84l10.918,0c0.95,-1.133 2.031,-2.559 3.242,-4.277l-15.84,0c1.251,1.393 2.24,2.539 2.969,3.437zm2.442,19.043l1.523,-1.27c1.797,1.653 3.274,3.054 4.434,4.199l-1.641,1.387c-0.951,-1.015 -2.39,-2.454 -4.316,-4.316zm15.508,1.328l1.68,-1.133c1.419,1.719 2.917,3.626 4.492,5.723l-1.797,1.25c-1.29,-1.836 -2.748,-3.782 -4.375,-5.84z" fill="#FFFFFF"/>
    <path id="svg_16" d="m376.992,405.715c-0.325,-0.456 -0.748,-0.977 -1.27,-1.563c2.136,-3.308 3.789,-7.422 4.961,-12.344l1.914,0.391c-0.664,2.383 -1.25,4.251 -1.758,5.605l5.527,0l0,1.719l-6.211,0c-0.897,2.201 -1.952,4.265 -3.163,6.192zm-0.801,5.762l4.199,0l0,-5.234l-2.031,0l0,-1.68l7.363,0l0,1.68l-3.438,0l0,5.234l4.551,0l0,1.719l-4.551,0l0,10c1.315,-1.276 2.604,-2.565 3.867,-3.867c0.365,0.794 0.671,1.394 0.918,1.797c-1.197,1.094 -2.818,2.649 -4.863,4.668c-0.299,0.3 -0.742,0.808 -1.328,1.523l-1.367,-1.309c0.612,-0.716 0.905,-1.517 0.879,-2.402l0,-10.41l-4.199,0l0,-1.719zm26.602,16.367c-5.716,-0.222 -9.596,-1.687 -11.641,-4.395c-0.95,1.771 -2.376,3.757 -4.277,5.957c-0.338,-0.391 -0.859,-0.859 -1.563,-1.406c2.292,-2.526 3.842,-4.661 4.648,-6.406c-1.016,-1.823 -1.979,-4.434 -2.891,-7.832l1.738,-0.605c0.664,2.513 1.367,4.57 2.109,6.172c0.808,-2.161 1.381,-5.442 1.719,-9.844l-5.039,0l0,-1.973l5.527,-10.273l-5.566,0l0,-1.758l7.52,0l0,1.953l-5.469,10.293l4.863,0l0,1.758c-0.403,5.169 -1.185,9.141 -2.344,11.914c1.758,2.917 5.437,4.44 11.035,4.57c1.889,0.091 3.926,0.137 6.113,0.137c1.264,0 2.787,-0.02 4.57,-0.059c-0.299,0.625 -0.54,1.289 -0.723,1.992c-4.072,-0.013 -7.517,-0.078 -10.329,-0.195zm-5.664,-30.41l0,-1.68l5.195,0l0,-3.867l1.875,0l0,3.867l6.875,0l0,5.449l2.598,0l0,1.719l-2.598,0l0,5.566l-6.875,0l0,4.023l7.285,0l0,1.68l-7.285,0l0,3.887l8.164,0l0,1.719l-8.164,0l0,4.316l-1.875,0l0,-4.316l-6.797,0l0,-1.719l6.797,0l0,-3.887l-5.879,0l0,-1.68l5.879,0l0,-4.023l-5.195,0l0,-1.68l5.195,0l0,-3.887l-7.09,0l0,-1.719l7.09,0l0,-3.77l-5.195,0l0,0.002zm12.109,0l-5.039,0l0,3.77l5.039,0l0,-3.77zm-5.039,5.488l0,3.887l5.039,0l0,-3.887l-5.039,0z" fill="#FFFFFF"/>
    <path id="svg_17" d="m418.281,394.797l34.16,0l0,2.129l-8.008,0l0,12.266l9.688,0l0,2.168l-9.688,0l0,18.008l-2.227,0l0,-18.008l-13.242,0c0.026,0.481 0.039,0.977 0.039,1.484c0,7.761 -3.411,13.359 -10.234,16.797c-0.494,-0.69 -1.028,-1.354 -1.602,-1.992c3.854,-2.148 6.381,-4.304 7.578,-6.465c1.328,-2.136 1.999,-5.41 2.012,-9.824l-10.195,0l0,-2.168l10.195,0l0,-12.266l-8.477,0l0,-2.129l0.001,0zm10.723,2.129l0,12.266l13.203,0l0,-12.266l-13.203,0z" fill="#FFFFFF"/>
    <path id="svg_18" d="m471.191,423.527l-1.543,1.68c-1.797,-1.667 -3.346,-3.079 -4.648,-4.238c-1.613,2.474 -4.146,5.149 -7.598,8.027c-0.313,-0.403 -0.82,-0.964 -1.523,-1.68c3.398,-2.734 5.906,-5.332 7.52,-7.793c-0.949,-0.847 -2.441,-2.136 -4.473,-3.867c-0.586,-0.508 -1.027,-0.886 -1.328,-1.133c0.951,-3.516 1.83,-7.585 2.637,-12.207l-4.199,0l0,-1.953l4.531,0c0.469,-3.06 0.867,-5.833 1.191,-8.32l2.207,0.234c-0.508,3.308 -0.949,6.003 -1.328,8.086l7.402,0l0,2.031c-0.625,7.683 -1.934,13.255 -3.926,16.719c1.264,1.055 2.957,2.527 5.078,4.414zm-3.222,-21.211l-5.645,0c-0.832,4.492 -1.672,8.359 -2.52,11.602c0.223,0.183 0.547,0.449 0.977,0.801c1.59,1.289 2.807,2.292 3.652,3.008c1.85,-3.347 3.028,-8.484 3.536,-15.411zm6.719,3.125c1.043,-0.039 2.715,-0.11 5.02,-0.215c2.969,-0.13 6.094,-0.247 9.375,-0.352c-1.223,-2.058 -2.492,-4.108 -3.809,-6.152l1.719,-1.074c2.227,3.229 4.5,6.895 6.816,10.996l-1.973,1.113c-0.586,-1.094 -1.133,-2.077 -1.641,-2.949c-3.879,0.078 -8.678,0.261 -14.395,0.547c-0.117,0.013 -0.299,0.026 -0.547,0.039c-1.301,0.065 -2.227,0.176 -2.773,0.332l-1.152,-2.129c0.938,-0.612 1.816,-1.504 2.637,-2.676c2.422,-3.398 4.584,-7.09 6.484,-11.074l2.188,0.801c-2.735,4.792 -5.383,9.056 -7.949,12.793zm-1.368,7.325l17.715,0l0,16.797l-2.07,0l0,-2.676l-13.574,0l0,2.676l-2.07,0l0,-16.797l-0.001,0zm2.071,1.875l0,10.352l13.574,0l0,-10.352l-13.574,0z" fill="#FFFFFF"/>
    <path id="svg_19" d="m501.543,431.555l-2.07,0c4.35,-5.286 6.523,-11.426 6.523,-18.418c0,-7.409 -2.199,-13.646 -6.602,-18.711l2.07,0c4.311,4.935 6.465,11.185 6.465,18.75c0.001,7.304 -2.128,13.43 -6.386,18.379z" fill="#FFFFFF"/>
   </g>
  </g>
 </g>
</svg>