<svg width="806.2" height="598.967" xmlns="http://www.w3.org/2000/svg" xmlns:xlink="http://www.w3.org/1999/xlink">
 <defs>
  <pattern viewBox="0 -71 71 71" id="SVGID_5_" patternUnits="userSpaceOnUse" height="71" width="71" y="695.95" x="97.5">
   <g id="svg_1">
    <polygon id="svg_2" points="0,0 71,0 71,-71 0,-71   " fill="none"/>
    <g id="svg_3">
     <polygon id="svg_4" points="0,-71 71,-71 71,0 0,0    " fill="none"/>
     <g id="svg_5">
      <polygon id="svg_6" points="0,-71 71,-71 71,0 0,0     " fill="none"/>
      <path id="svg_7" d="m41.8,-35.5c0,3.5 -2.8,6.3 -6.3,6.3s-6.3,-2.8 -6.3,-6.3s2.8,-6.3 6.3,-6.3s6.3,2.8 6.3,6.3z" fill="#B3B3B3"/>
     </g>
    </g>
   </g>
  </pattern>
  <pattern viewBox="0 -231.8 40 103" id="SVGID_6_" patternUnits="userSpaceOnUse" height="103" width="40" y="695.95" x="97.5">
   <g id="svg_8">
    <polygon id="svg_9" points="0,-128.8 40,-128.8 40,-231.8 0,-231.8   " fill="none"/>
    <g id="svg_10">
     <polygon id="svg_11" points="0,-231.8 40,-231.8 40,-128.8 0,-128.8    " fill="none"/>
     <g id="svg_12">
      <polygon id="svg_13" points="0,-231.8 40,-231.8 40,-128.8 0,-128.8     " fill="none"/>
      <polygon id="svg_14" points="34.5,0 37.5,0 37.5,-154.5 34.5,-154.5     "/>
      <polygon id="svg_15" points="26.5,0 29.5,0 29.5,-154.5 26.5,-154.5     "/>
      <polygon id="svg_16" points="18.5,0 21.5,0 21.5,-154.5 18.5,-154.5     "/>
      <polygon id="svg_17" points="10.5,0 13.5,0 13.5,-154.5 10.5,-154.5     "/>
      <polygon id="svg_18" points="2.5,0 5.5,0 5.5,-154.5 2.5,-154.5     "/>
      <polygon id="svg_19" points="34.5,-103 37.5,-103 37.5,-257.5 34.5,-257.5     "/>
      <polygon id="svg_20" points="26.5,-103 29.5,-103 29.5,-257.5 26.5,-257.5     "/>
      <polygon id="svg_21" points="18.5,-103 21.5,-103 21.5,-257.5 18.5,-257.5     "/>
      <polygon id="svg_22" points="10.5,-103 13.5,-103 13.5,-257.5 10.5,-257.5     "/>
      <polygon id="svg_23" points="2.5,-103 5.5,-103 5.5,-257.5 2.5,-257.5     "/>
      <polygon id="svg_24" points="34.5,-206 37.5,-206 37.5,-360.5 34.5,-360.5     "/>
      <polygon id="svg_25" points="26.5,-206 29.5,-206 29.5,-360.5 26.5,-360.5     "/>
      <polygon id="svg_26" points="18.5,-206 21.5,-206 21.5,-360.5 18.5,-360.5     "/>
      <polygon id="svg_27" points="10.5,-206 13.5,-206 13.5,-360.5 10.5,-360.5     "/>
      <polygon id="svg_28" points="2.5,-206 5.5,-206 5.5,-360.5 2.5,-360.5     "/>
     </g>
    </g>
   </g>
  </pattern>
  <pattern viewBox="0 -231.8 40 103" id="SVGID_7_" patternUnits="userSpaceOnUse" height="103" width="40" y="695.95" x="97.5">
   <g id="svg_29">
    <polygon id="svg_30" points="0,-128.8 40,-128.8 40,-231.8 0,-231.8   " fill="none"/>
    <g id="svg_31">
     <polygon id="svg_32" points="0,-231.8 40,-231.8 40,-128.8 0,-128.8    " fill="none"/>
     <g id="svg_33">
      <polygon id="svg_34" points="0,-231.8 40,-231.8 40,-128.8 0,-128.8     " fill="none"/>
      <polygon id="svg_35" points="34.5,0 37.5,0 37.5,-154.5 34.5,-154.5     "/>
      <polygon id="svg_36" points="26.5,0 29.5,0 29.5,-154.5 26.5,-154.5     "/>
      <polygon id="svg_37" points="18.5,0 21.5,0 21.5,-154.5 18.5,-154.5     "/>
      <polygon id="svg_38" points="10.5,0 13.5,0 13.5,-154.5 10.5,-154.5     "/>
      <polygon id="svg_39" points="2.5,0 5.5,0 5.5,-154.5 2.5,-154.5     "/>
      <polygon id="svg_40" points="34.5,-103 37.5,-103 37.5,-257.5 34.5,-257.5     "/>
      <polygon id="svg_41" points="26.5,-103 29.5,-103 29.5,-257.5 26.5,-257.5     "/>
      <polygon id="svg_42" points="18.5,-103 21.5,-103 21.5,-257.5 18.5,-257.5     "/>
      <polygon id="svg_43" points="10.5,-103 13.5,-103 13.5,-257.5 10.5,-257.5     "/>
      <polygon id="svg_44" points="2.5,-103 5.5,-103 5.5,-257.5 2.5,-257.5     "/>
      <polygon id="svg_45" points="34.5,-206 37.5,-206 37.5,-360.5 34.5,-360.5     "/>
      <polygon id="svg_46" points="26.5,-206 29.5,-206 29.5,-360.5 26.5,-360.5     "/>
      <polygon id="svg_47" points="18.5,-206 21.5,-206 21.5,-360.5 18.5,-360.5     "/>
      <polygon id="svg_48" points="10.5,-206 13.5,-206 13.5,-360.5 10.5,-360.5     "/>
      <polygon id="svg_49" points="2.5,-206 5.5,-206 5.5,-360.5 2.5,-360.5     "/>
     </g>
    </g>
   </g>
  </pattern>
  <pattern viewBox="0 -71 71 71" id="SVGID_8_" patternUnits="userSpaceOnUse" height="71" width="71" y="695.95" x="97.5">
   <g id="svg_50">
    <polygon id="svg_51" points="0,0 71,0 71,-71 0,-71   " fill="none"/>
    <g id="svg_52">
     <polygon id="svg_53" points="0,-71 71,-71 71,0 0,0    " fill="none"/>
     <g id="svg_54">
      <polygon id="svg_55" points="0,-71 71,-71 71,0 0,0     " fill="none"/>
      <path id="svg_56" d="m41.8,-35.5c0,3.5 -2.8,6.3 -6.3,6.3s-6.3,-2.8 -6.3,-6.3s2.8,-6.3 6.3,-6.3s6.3,2.8 6.3,6.3z" fill="#FFFFFF"/>
     </g>
    </g>
   </g>
  </pattern>
  <pattern patternTransform="matrix(0.1017 0 0 0.1017 -22141.8633 -6301.5342)" xlink:href="#SVGID_5_" id="SVGID_1_"/>
  <pattern patternTransform="matrix(0.3298 0.0946 -0.0946 0.3298 -17389.2129 1524.9316)" xlink:href="#SVGID_6_" id="SVGID_2_"/>
  <pattern patternTransform="matrix(-0.3298 0.0946 0.0946 0.3298 -31903.0117 1560.0488)" xlink:href="#SVGID_7_" id="SVGID_3_"/>
  <pattern patternTransform="matrix(0.1017 0 0 0.1017 -22141.8633 -6301.5342)" xlink:href="#SVGID_8_" id="SVGID_4_"/>
 </defs>
 <g>
  <title>background</title>
  <rect fill="none" id="canvas_background" height="402" width="582" y="-1" x="-1"/>
 </g>
 <g>
  <title>Layer 1</title>
  <g id="Layer_1">
   <g id="svg_57">
    <g id="svg_58">
     <g id="svg_59">
      <g id="svg_60">
       <path id="svg_61" d="m801.4,418.7c-2.9,-15.5 -17.7,-102.5 -32,-144.6c-9.4,-27.7 -13.1,-53 -17,-64.9c-12,-35.699 -33,-65.699 -33,-65.699s-9.5,-13.101 -10.1,-16.301c-0.601,-3.3 -4.701,-8.6 -4.701,-8.6s-17.399,-5.7 -62.299,-5.7c-44.9,0 -53.701,5 -53.701,5s-2.399,2.899 -5.899,4.8c-3.5,1.801 -11.7,1.7 -11.7,1.7l-33.4,0c0,0 -0.6,-0.101 -0.899,0.3c-0.399,0.4 -0.601,2 -0.601,2l-133,0l-133.1,0c0,0 -0.3,-1.699 -0.6,-2c-0.4,-0.4 -0.9,-0.3 -0.9,-0.3l-33.4,0c0,0 -8.2,0.2 -11.7,-1.7c-3.5,-1.8 -5.9,-4.8 -5.9,-4.8s-8.8,-5 -53.7,-5c-44.8,0 -62.3,5.7 -62.3,5.7s-4.1,5.3 -4.7,8.6c-0.6,3.3 -10.1,16.3 -10.1,16.3s-21,30 -33,65.699c-4,11.9 -7.7,37.2 -17,64.9c-14.3,42.1 -29.1,129.1 -32,144.6c-4.3,23.2 -4.7,90.101 -4.7,90.101s4.5,53.4 36.2,74.9c31.7,21.5 56.7,14 56.7,14s33.1,-8.201 57.8,-41.9c24.7,-33.699 56.6,-129.199 56.6,-129.199s2.2,-3 5.7,-5.301s6.3,-2.6 6.3,-2.6l183.7,0.1l183.7,-0.1c0,0 2.8,0.299 6.3,2.6s5.7,5.301 5.7,5.301s31.9,95.398 56.601,129.199c24.699,33.801 57.799,41.9 57.799,41.9s25,7.5 56.701,-14c31.699,-21.5 36.199,-74.9 36.199,-74.9s-0.199,-67 -4.6,-90.1z" fill="#E6E6E6"/>
       <g id="svg_62">
        <g id="svg_63">
         <g id="svg_64">
          <path id="svg_65" d="m36.7,276c9.4,-27.699 13.1,-53 17,-64.899c12,-35.7 33,-65.7 33,-65.7s9.5,-13.101 10.1,-16.3c0.6,-3.301 4.7,-8.6 4.7,-8.6s17.4,-5.701 62.3,-5.701c44.8,0 53.7,5 53.7,5s2.4,2.9 5.9,4.801c3.5,1.8 11.7,1.699 11.7,1.699l33.4,0c0,0 0.6,-0.1 0.9,0.301c0.4,0.4 0.6,2 0.6,2l133.1,0l133.1,0c0,0 0.3,-1.7 0.601,-2c0.399,-0.4 0.899,-0.301 0.899,-0.301l33.4,0c0,0 8.201,0.201 11.701,-1.699c3.5,-1.801 5.899,-4.801 5.899,-4.801s8.8,-5 53.7,-5s62.3,5.701 62.3,5.701s4.101,5.299 4.7,8.6c0.6,3.3 10.1,16.3 10.1,16.3s21,30 33,65.7c4,11.899 7.7,37.2 17,64.899c14.301,42.101 29.1,129.101 32,144.601c3.9,20.9 4.6,77.299 4.7,88.299c0,-0.1 0,-0.1 0,-0.1s-0.3,-66.9 -4.7,-90.1c-2.9,-15.5 -17.699,-102.5 -32,-144.6c-9.4,-27.7 -13.1,-53 -17,-64.9c-12,-35.699 -33,-65.699 -33,-65.699s-9.5,-13.101 -10.1,-16.301c-0.6,-3.3 -4.7,-8.6 -4.7,-8.6s-17.399,-5.7 -62.3,-5.7s-53.7,5 -53.7,5s-2.399,2.899 -5.899,4.8c-3.5,1.801 -11.701,1.7 -11.701,1.7l-33.4,0c0,0 -0.601,-0.101 -0.899,0.3c-0.4,0.4 -0.601,2 -0.601,2l-133.1,0l-133.1,0c0,0 -0.3,-1.699 -0.6,-2c-0.4,-0.4 -0.9,-0.3 -0.9,-0.3l-33.4,0c0,0 -8.2,0.2 -11.7,-1.7c-3.5,-1.8 -5.9,-4.8 -5.9,-4.8s-8.8,-5 -53.7,-5c-44.8,0 -62.3,5.7 -62.3,5.7s-4.1,5.3 -4.7,8.6c-0.6,3.3 -10.1,16.3 -10.1,16.3s-21,30 -33,65.699c-4,11.9 -7.7,37.2 -17,64.9c-14.3,42.1 -29.1,129.1 -32,144.6c-4.3,23.2 -4.7,90.101 -4.7,90.101l0,0.1c0.1,-10.898 0.7,-67.398 4.7,-88.299c3,-15.401 17.7,-102.5 32,-144.601z" fill="#CFCFCF"/>
         </g>
        </g>
       </g>
       <path id="svg_66" d="m351.3,359.999c0,-42.199 -34.3,-76.5 -76.5,-76.5c-42.2,0 -76.5,34.3 -76.5,76.5c0,0.701 0,1.301 0.1,2c0,0.701 -0.1,1.301 -0.1,2c0,42.201 34.3,76.5 76.5,76.5c42.2,0 76.5,-34.299 76.5,-76.5c0,-0.699 0,-1.299 -0.1,-2c0,-0.699 0.1,-1.398 0.1,-2z" fill="#CFCFCF"/>
       <circle id="svg_67" r="73" cy="355.999" cx="274.8" fill="#E6E6E6"/>
       <circle id="svg_68" r="51.5" cy="355.999" cx="274.8"/>
       <path id="svg_69" d="m607.9,359.999c0,-42.199 -34.301,-76.5 -76.5,-76.5c-42.2,0 -76.5,34.3 -76.5,76.5c0,0.701 0,1.301 0.1,2c0,0.701 -0.1,1.301 -0.1,2c0,42.201 34.3,76.5 76.5,76.5c42.199,0 76.5,-34.299 76.5,-76.5c0,-0.699 0,-1.299 -0.1,-2c0.1,-0.699 0.1,-1.398 0.1,-2z" fill="#CFCFCF"/>
       <circle id="svg_70" r="73" cy="355.999" cx="531.4" fill="#E6E6E6"/>
       <circle id="svg_71" r="51.5" cy="355.999" cx="531.4"/>
       <path id="svg_72" d="m534.9,128c-0.4,-3.201 -3.301,-5.601 -6.5,-5.601l0,0l-125.3,0l0,0l-125.3,0l0,0c-3.2,0 -6.1,2.3 -6.5,5.601c-0.1,0.699 -0.1,1.399 -0.1,2.1l0,127.4c0,8.9 7.2,16.101 16.1,16.101l115.8,0l0,0l115.8,0c8.9,0 16.1,-7.2 16.1,-16.101l0,-127.4c0.1,-0.7 0,-1.4 -0.1,-2.1z" fill="#121212"/>
       <g id="svg_73">
        <path id="svg_74" d="m530.5,124.299c0,-1 -0.8,-1.899 -1.9,-1.899l-125.5,0l0,0l-125.6,0c-1,0 -1.9,0.8 -1.9,1.899l0,6l0,123.2c0,8.601 7,15.601 15.6,15.601l111.9,0l0,0l111.9,0c8.6,0 15.6,-7 15.6,-15.601l0,-123.099l-0.1,-6.101z" fill="#080808"/>
        <g id="svg_75" opacity="0.12">
         <path id="svg_76" d="m275.6,253.5c0,8.601 7,15.601 15.6,15.601l111.9,0l0,0l111.9,0c8.6,0 15.6,-7 15.6,-15.601l0,-106.5l-254.9,0l0,106.5l-0.1,0z" fill="url(#SVGID_1_)"/>
        </g>
       </g>
       <circle id="svg_77" r="94.3" cy="244.801" cx="652.4" fill="#080808"/>
       <g id="svg_78">
        <circle id="svg_79" r="94.3" cy="244.801" cx="153.8" fill="#080808"/>
        <path id="svg_80" d="m230.5,254.1l9.5,-8.9c0.5,-0.5 0.5,-1.2 0,-1.7l-9.5,-8.899c-0.7,-0.7 -1.9,-0.2 -1.9,0.8l0,8.9l0,8.899c-0.1,1 1.1,1.5 1.9,0.9z" fill="#1F1F1F"/>
        <path id="svg_81" d="m145.1,169.799l8.9,0l8.9,0c1,0 1.5,-1.199 0.8,-1.899l-8.9,-9.5c-0.5,-0.5 -1.2,-0.5 -1.7,0l-8.9,9.5c-0.6,0.7 -0.1,1.899 0.9,1.899z" fill="#1F1F1F"/>
        <path id="svg_82" d="m77.6,234.6l-9.5,8.899c-0.5,0.5 -0.5,1.2 0,1.7l9.5,8.9c0.7,0.7 1.9,0.2 1.9,-0.8l0,-8.9l0,-8.9c0,-0.999 -1.2,-1.599 -1.9,-0.899z" fill="#1F1F1F"/>
        <path id="svg_83" d="m162.9,318.8l-8.9,0l-8.9,0c-1,0 -1.5,1.199 -0.8,1.9l8.9,9.5c0.5,0.5 1.2,0.5 1.7,0l8.9,-9.5c0.6,-0.701 0.1,-1.9 -0.9,-1.9z" fill="#1F1F1F"/>
       </g>
      </g>
     </g>
    </g>
    <g id="svg_84">
     <g id="svg_85">
      <path id="svg_86" d="m547.7,134.6c0,2.1 -1.5,3.8 -4.101,3.8c-2.6,0 -4.1,-1.7 -4.1,-3.8c0,-2 1.5,-3.801 4.1,-3.801c2.601,0 4.101,1.701 4.101,3.801zm-6.7,0c0,1.4 0.801,2.699 2.6,2.699c1.801,0 2.601,-1.399 2.601,-2.699c0,-1.4 -0.8,-2.7 -2.601,-2.7c-1.799,0 -2.6,1.3 -2.6,2.7z" fill="#080808"/>
      <path id="svg_87" d="m549,131l3.801,0c2.399,0 2.899,1.299 2.899,2.199s-0.5,2.2 -2.899,2.2l-2.301,0l0,2.8l-1.5,0l0,-7.199zm1.5,3.4l2.2,0c0.7,0 1.5,-0.3 1.5,-1.2s-0.7,-1.2 -1.5,-1.2l-2.2,0l0,2.4z" fill="#080808"/>
      <path id="svg_88" d="m556.2,131l6.899,0l0,1.1l-2.699,0l0,6.1l-1.5,0l0,-6.1l-2.7,0l0,-1.1z" fill="#080808"/>
      <path id="svg_89" d="m564.2,131l1.5,0l0,7.199l-1.5,0l0,-7.199z" fill="#080808"/>
      <path id="svg_90" d="m575.2,134.6c0,2.1 -1.5,3.8 -4.101,3.8c-2.6,0 -4.1,-1.7 -4.1,-3.8c0,-2 1.5,-3.801 4.1,-3.801c2.601,0 4.101,1.701 4.101,3.801zm-6.7,0c0,1.4 0.801,2.699 2.6,2.699c1.801,0 2.601,-1.399 2.601,-2.699c0,-1.4 -0.8,-2.7 -2.601,-2.7c-1.799,0 -2.6,1.3 -2.6,2.7z" fill="#080808"/>
      <path id="svg_91" d="m576.6,131l1.5,0l3.9,5.299l0,0l0,-5.299l1.4,0l0,7.199l-1.6,0l-3.9,-5.3l0,0l0,5.3l-1.4,0l0,-7.199l0.1,0z" fill="#080808"/>
      <path id="svg_92" d="m586.301,135.799c0,1.101 1,1.5 2.199,1.5c1.301,0 1.801,-0.6 1.801,-1.1c0,-0.6 -0.4,-0.8 -0.701,-0.9c-0.6,-0.199 -1.4,-0.299 -2.6,-0.599c-1.5,-0.3 -1.9,-1.1 -1.9,-1.8c0,-1.5 1.601,-2.101 3.101,-2.101c1.8,0 3.3,0.801 3.3,2.301l-1.501,0c-0.1,-0.9 -0.8,-1.301 -1.8,-1.301c-0.7,0 -1.601,0.201 -1.601,0.9c0,0.5 0.4,0.801 1,0.9c0.101,0 2,0.4 2.5,0.6c1.101,0.301 1.701,1.1 1.701,1.801c0,1.6 -1.701,2.299 -3.4,2.299c-2,0 -3.5,-0.799 -3.6,-2.6l1.5,0l0,0.1l0.001,0z" fill="#080808"/>
     </g>
     <g id="svg_93">
      <path id="svg_94" d="m222.3,135.799c0,1.101 1,1.5 2.2,1.5c1.3,0 1.8,-0.6 1.8,-1.1c0,-0.6 -0.4,-0.8 -0.7,-0.9c-0.6,-0.199 -1.4,-0.299 -2.6,-0.6c-1.5,-0.3 -1.9,-1.1 -1.9,-1.8c0,-1.5 1.6,-2.101 3.1,-2.101c1.8,0 3.3,0.801 3.3,2.301l-1.5,0c-0.1,-0.9 -0.8,-1.301 -1.8,-1.301c-0.7,0 -1.6,0.201 -1.6,0.9c0,0.5 0.4,0.801 1,0.9c0.1,0 2,0.4 2.5,0.6c1.1,0.301 1.7,1.1 1.7,1.801c0,1.6 -1.7,2.299 -3.4,2.299c-2,0 -3.5,-0.799 -3.6,-2.6l1.5,0l0,0.101z" fill="#080808"/>
      <path id="svg_95" d="m229,131l1.5,0l0,2.899l3.9,0l0,-2.899l1.5,0l0,7.199l-1.5,0l0,-3.3l-3.9,0l0,3.2l-1.5,0l0,-7.099z" fill="#080808"/>
      <path id="svg_96" d="m240,131l1.6,0l3.3,7.199l-1.6,0l-0.8,-1.9l-3.4,0l-0.8,1.9l-1.5,0l3.2,-7.199zm-0.5,4.299l2.6,0l-1.3,-3.1l0,0l-1.3,3.1z" fill="#080808"/>
      <path id="svg_97" d="m245.7,131l4.1,0c1.9,0 2.8,0.699 2.8,1.899c0,1.399 -1.1,1.7 -1.4,1.8l0,0c0.5,0.1 1.3,0.4 1.3,1.5c0,0.801 0.1,1.6 0.5,1.9l-1.6,0c-0.2,-0.301 -0.2,-0.7 -0.2,-1.1c0,-1.301 -0.3,-1.9 -1.7,-1.9l-2.2,0l0,3l-1.5,0l-0.1,-7.099l0,0zm1.5,3.2l2.5,0c1,0 1.5,-0.4 1.5,-1.1c0,-0.9 -0.7,-1.1 -1.5,-1.1l-2.4,0l0,2.199l-0.1,0l0,0.001z" fill="#080808"/>
      <path id="svg_98" d="m254.2,131l6.2,0l0,1.1l-4.7,0l0,1.9l4.3,0l0,1l-4.3,0l0,2.1l4.7,0l0,1.1l-6.2,0l0,-7.2z" fill="#080808"/>
     </g>
    </g>
    <g id="svg_99">
     <g id="svg_100">
      <g id="svg_101">
       <path id="svg_102" d="m697.301,109.9c0,-0.8 -0.4,-1.5 -1.101,-1.899c-4.5,-2.9 -23.399,-13.601 -51.5,-13.601c-26.899,0 -41.101,5.899 -45.101,8c-0.799,0.399 -1.199,1.2 -1.199,2c0,0 9.8,-2.899 47.5,-2.899c37.7,-0.001 51.401,8.399 51.401,8.399z" fill="#9E1F20"/>
       <path id="svg_103" d="m697.2,116.799l0,0l0,-6.899c0,0 -13.7,-8.399 -51.399,-8.399c-37.801,0 -47.5,2.899 -47.5,2.899l0,11l0,0c7.699,-1.3 21.199,-2.601 44.1,-2.601c28.499,0.101 45.9,2.401 54.799,4z" fill="#C1272D"/>
      </g>
     </g>
     <g id="svg_104">
      <g id="svg_105">
       <path id="svg_106" d="m108.9,109.9c0,-0.8 0.4,-1.5 1.1,-1.899c4.5,-2.9 23.4,-13.601 51.5,-13.601c26.9,0 41.1,5.899 45.1,8c0.8,0.399 1.2,1.2 1.2,2c0,0 -9.8,-2.899 -47.5,-2.899c-37.7,-0.001 -51.4,8.399 -51.4,8.399z" fill="#9E1F20"/>
       <path id="svg_107" d="m109,116.799l0,0l0,-6.899c0,0 13.7,-8.399 51.4,-8.399c37.8,0 47.5,2.899 47.5,2.899l0,11l0,0c-7.7,-1.3 -21.2,-2.601 -44.1,-2.601c-28.5,0.101 -45.9,2.401 -54.8,4z" fill="#C1272D"/>
      </g>
     </g>
    </g>
    <g id="svg_108">
     <g id="svg_109">
      <g id="svg_110">
       <g id="svg_111">
        <path id="svg_112" d="m710,271c-14.5,0 -26.3,-11.8 -26.3,-26.3s11.8,-26.3 26.3,-26.3s26.301,11.8 26.301,26.3s-11.801,26.3 -26.301,26.3z" fill="#2C2C2C"/>
        <path id="svg_113" d="m710,219.5c13.9,0 25.301,11.301 25.301,25.301s-11.301,25.299 -25.301,25.299s-25.3,-11.3 -25.3,-25.3s11.4,-25.3 25.3,-25.3m0,-2c-15,0 -27.3,12.2 -27.3,27.301c0,15.1 12.2,27.3 27.3,27.3s27.301,-12.2 27.301,-27.3c0,-15.101 -12.301,-27.301 -27.301,-27.301l0,0z" fill="#222222"/>
       </g>
       <path id="svg_114" d="m710,225.9c-10.4,0 -18.9,8.5 -18.9,18.9c0,10.399 8.5,18.899 18.9,18.899s18.9,-8.5 18.9,-18.899c0,-10.4 -8.4,-18.9 -18.9,-18.9zm0,34.9c-8.9,0 -16,-7.2 -16,-16c0,-8.9 7.2,-16 16,-16c8.801,0 16,7.199 16,16c0.1,8.9 -7.1,16 -16,16z" fill="#FF6666"/>
      </g>
      <g id="svg_115">
       <g id="svg_116">
        <path id="svg_117" d="m652.4,328.601c-14.5,0 -26.301,-11.801 -26.301,-26.301c0,-14.5 11.801,-26.3 26.301,-26.3s26.3,11.801 26.3,26.3c0,14.5 -11.8,26.301 -26.3,26.301z" fill="#2C2C2C"/>
        <path id="svg_118" d="m652.4,277.1c13.9,0 25.3,11.3 25.3,25.299c0,14 -11.3,25.301 -25.3,25.301s-25.3,-11.301 -25.3,-25.301c0,-13.999 11.4,-25.299 25.3,-25.299m0,-2c-15,0 -27.301,12.2 -27.301,27.299c0,15 12.201,27.301 27.301,27.301s27.3,-12.201 27.3,-27.301c0,-14.999 -12.2,-27.299 -27.3,-27.299l0,0z" fill="#222222"/>
       </g>
       <polygon id="svg_119" points="666.801,290 664.801,288 652.4,300.399 640.1,288 638.1,290 650.4,302.399 638.1,314.7        640.1,316.8 652.4,304.399 664.801,316.8 666.801,314.7 654.4,302.399      " fill="#7CB2E8"/>
      </g>
      <g id="svg_120">
       <g id="svg_121">
        <path id="svg_122" d="m594.9,271c-14.5,0 -26.301,-11.8 -26.301,-26.3s11.801,-26.3 26.301,-26.3s26.199,11.9 26.199,26.4s-11.798,26.2 -26.199,26.2z" fill="#2C2C2C"/>
        <path id="svg_123" d="m594.801,219.5c13.899,0 25.299,11.3 25.299,25.3s-11.299,25.3 -25.299,25.3s-25.301,-11.3 -25.301,-25.3s11.4,-25.3 25.301,-25.3m0,-2c-15,0 -27.301,12.2 -27.301,27.301c0,15.1 12.2,27.3 27.301,27.3c15.1,0 27.299,-12.3 27.299,-27.3s-12.2,-27.301 -27.299,-27.301l0,0z" fill="#222222"/>
       </g>
       <path id="svg_124" d="m606.4,230.4l-23,0l-2.8,0l0,2.8l0,23l0,2.8l2.801,0l23,0l2.8,0l0,-2.8l0,-23l0,-2.8l-2.801,0zm0,25.9l-23,0l0,-23l23,0l0,23z" fill="#FF69F8"/>
      </g>
      <g id="svg_125">
       <g id="svg_126">
        <path id="svg_127" d="m652.4,213.5c-14.5,0 -26.301,-11.8 -26.301,-26.3s11.801,-26.3 26.301,-26.3s26.3,11.8 26.3,26.3s-11.8,26.3 -26.3,26.3z" fill="#2C2C2C"/>
        <path id="svg_128" d="m652.4,162c13.9,0 25.3,11.299 25.3,25.3c0,14 -11.3,25.3 -25.3,25.3s-25.3,-11.3 -25.3,-25.3c0,-14.001 11.4,-25.3 25.3,-25.3m0,-2c-15,0 -27.301,12.199 -27.301,27.3c0,15.1 12.201,27.3 27.301,27.3s27.3,-12.2 27.3,-27.3c0,-15.1 -12.2,-27.3 -27.3,-27.3l0,0z" fill="#222222"/>
       </g>
       <path id="svg_129" d="m668.4,195.2l-16,-27.6l-16,27.6l-1.6,2.8l3.299,0l14.301,0l14.3,0l3.3,0l-1.6,-2.8zm-16,0l-12.7,0l12.7,-21.9l12.699,21.9l-12.699,0z" fill="#40E2A0"/>
      </g>
     </g>
    </g>
    <g id="svg_130">
     <g id="svg_131">
      <circle id="svg_132" r="4.1" cy="316.399" cx="403.1"/>
      <circle id="svg_133" r="4.1" cy="295.5" cx="403.1"/>
      <circle id="svg_134" r="4.1" cy="305.7" cx="396.2"/>
      <circle id="svg_135" r="4.1" cy="305.7" cx="381.5"/>
      <circle id="svg_136" r="4.1" cy="316.399" cx="388.8"/>
      <circle id="svg_137" r="4.1" cy="295.5" cx="388.8"/>
      <circle id="svg_138" r="4.1" cy="295.5" cx="374.5"/>
     </g>
     <g id="svg_139">
      <circle id="svg_140" r="4.1" cy="305.7" cx="410"/>
      <circle id="svg_141" r="4.1" cy="305.7" cx="424.7"/>
      <circle id="svg_142" r="4.1" cy="316.399" cx="417.301"/>
      <circle id="svg_143" r="4.1" cy="295.5" cx="417.301"/>
      <circle id="svg_144" r="4.1" cy="295.5" cx="431.7"/>
     </g>
    </g>
    <g id="svg_145">
     <circle id="svg_146" r="20.2" cy="362" cx="403.1" stroke-miterlimit="10" stroke-width="2" stroke="#000000" fill="#050505"/>
     <g id="svg_147">
      <path id="svg_148" d="m404.2,368.601l0,-2.801l0,-3.5l0,-6.5c0,-0.5 0.101,-0.801 0.3,-1c0.1,-0.199 0.4,-0.301 0.7,-0.199c0.601,0.199 0.899,0.699 0.899,1.699l0,6.9c0.801,0.4 1.5,0.5 2.101,0.5s1.2,-0.201 1.601,-0.5c1,-0.701 1.5,-1.9 1.5,-3.701c0,-1.898 -0.4,-3.398 -1.201,-4.299c-0.799,-1 -2.1,-1.9 -4.1,-2.6c-1.3,-0.4 -2.5,-0.801 -3.6,-1.1c-1.1,-0.301 -2,-0.5 -2.9,-0.701l0,12.201l0,0l0,2.699l0,0l0,1.699l0,0l0,2.5l0,0l0,1.5l4.7,1.5l0,-3.6l0,0l0,-0.697z" fill="#F2F2F2"/>
      <path id="svg_149" d="m399.1,367.601l-1.699,0.6l-0.9,0.4l-1.6,0.299l-1.5,-0.199c-0.3,-0.201 -0.4,-0.4 -0.2,-0.6c0.1,-0.102 0.2,-0.102 0.3,-0.201s0.3,-0.1 0.4,-0.199l1.1,-0.4l4.1,-1.5l0,-2.699l-1.699,0.5l-5.5,2l-1,0.398c-1.5,0.602 -2.2,1.201 -2.2,1.801c0.1,0.801 1,1.5 2.7,1.9c0.7,0.199 1.4,0.299 2.1,0.4c0.7,0.1 1.4,0.1 2.2,0.1c1,0 2.101,-0.1 3.3,-0.301l0.098,-2.299l0,0z" fill="#F2F2F2"/>
      <path id="svg_150" d="m414.9,365.3c-0.9,-0.301 -1.7,-0.5 -2.5,-0.6c-0.801,-0.1 -1.7,-0.201 -2.5,-0.1c-0.9,0 -1.9,0.199 -2.801,0.299c-0.799,0.201 -1.699,0.4 -2.6,0.801l0,2.799l3.9,-1.398l1.6,-0.5l1.1,-0.301l1.4,0c0.301,0.1 0.6,0.199 0.7,0.4c0,0.199 -0.2,0.4 -0.8,0.6l-1.4,0.5l-6.5,2.4l0,2.699l3.5,-1.299l6.4,-2.301l0.699,-0.4c1.5,-0.5 2.201,-1.199 2.201,-1.9c0.002,-0.6 -0.799,-1.199 -2.399,-1.699z" fill="#F2F2F2"/>
     </g>
    </g>
    <path id="svg_151" d="m105.3,544.499c-40.5,-2.799 -75.8,-20.299 -87.3,-30.5c-11.5,-10.199 -17.5,-31.5 -17.5,-31.5c-0.4,15 -0.4,26.301 -0.4,26.301s4.5,53.4 36.2,74.9c31.7,21.5 56.7,14 56.7,14s33.1,-8.201 57.8,-41.9c4.5,-6.199 9.3,-14.5 14.1,-23.801c-0.1,-0.1 -19.2,15.201 -59.6,12.5z" fill="#C1272D"/>
    <path id="svg_152" d="m700.9,544.499c40.5,-2.799 75.8,-20.299 87.3,-30.5c11.5,-10.199 17.5,-31.5 17.5,-31.5c0.399,15 0.399,26.301 0.399,26.301s-4.5,53.4 -36.199,74.9c-31.7,21.5 -56.7,14 -56.7,14s-33.101,-8.201 -57.8,-41.9c-4.5,-6.199 -9.301,-14.5 -14.1,-23.801c0.1,-0.1 19.2,15.201 59.6,12.5z" fill="#C1272D"/>
    <g id="svg_153">
     <g id="svg_154">
      <path id="svg_155" d="m105.3,544.499c-40.5,-2.799 -75.8,-20.299 -87.3,-30.5c-11.5,-10.199 -17.5,-31.5 -17.5,-31.5c-0.4,15 -0.4,26.301 -0.4,26.301s4.5,53.4 36.2,74.9c31.7,21.5 56.7,14 56.7,14s33.1,-8.201 57.8,-41.9c4.5,-6.199 9.3,-14.5 14.1,-23.801c-0.1,-0.1 -19.2,15.201 -59.6,12.5z" fill="#E6E6E6" opacity="0.1"/>
      <path id="svg_156" d="m105.3,544.499c-40.5,-2.799 -75.8,-20.299 -87.3,-30.5c-11.5,-10.199 -17.5,-31.5 -17.5,-31.5c-0.4,15 -0.4,26.301 -0.4,26.301s4.5,53.4 36.2,74.9c31.7,21.5 56.7,14 56.7,14s33.1,-8.201 57.8,-41.9c4.5,-6.199 9.3,-14.5 14.1,-23.801c-0.1,-0.1 -19.2,15.201 -59.6,12.5z" fill="url(#SVGID_2_)" opacity="0.08"/>
      <path id="svg_157" d="m90.1,592.499c-12.5,1.801 -31.3,-2 -45.1,-7.699c-13.6,-5.699 -24,-16.4 -24,-16.4c4.2,5.801 9.3,11.1 15.3,15.201c31.7,21.5 56.7,14 56.7,14s11.7,-2.9 26.3,-12.301c0,0 -14.6,5.199 -29.2,7.199z" opacity="0.22"/>
     </g>
     <g id="svg_158">
      <path id="svg_159" d="m700.9,544.499c40.5,-2.799 75.8,-20.299 87.3,-30.5c11.5,-10.199 17.5,-31.5 17.5,-31.5c0.399,15 0.399,26.301 0.399,26.301s-4.5,53.4 -36.199,74.9c-31.7,21.5 -56.7,14 -56.7,14s-33.101,-8.201 -57.8,-41.9c-4.5,-6.199 -9.301,-14.5 -14.1,-23.801c0.1,-0.1 19.2,15.201 59.6,12.5z" fill="#E6E6E6" opacity="0.1"/>
      <path id="svg_160" d="m700.9,544.499c40.5,-2.799 75.8,-20.299 87.3,-30.5c11.5,-10.199 17.5,-31.5 17.5,-31.5c0.399,15 0.399,26.301 0.399,26.301s-4.5,53.4 -36.199,74.9c-31.7,21.5 -56.7,14 -56.7,14s-33.101,-8.201 -57.8,-41.9c-4.5,-6.199 -9.301,-14.5 -14.1,-23.801c0.1,-0.1 19.2,15.201 59.6,12.5z" fill="url(#SVGID_3_)" opacity="0.08"/>
      <path id="svg_161" d="m716.1,592.499c12.5,1.801 31.301,-2 45.101,-7.699c13.601,-5.699 24,-16.4 24,-16.4c-4.2,5.801 -9.3,11.1 -15.3,15.201c-31.7,21.5 -56.7,14 -56.7,14s-11.7,-2.9 -26.3,-12.301c-0.001,0 14.599,5.199 29.199,7.199z" opacity="0.22"/>
     </g>
     <g id="svg_162">
      <g id="svg_163">
       <path id="svg_164" d="m240.6,143.5c6.9,0 12.5,5.6 12.5,12.5l0,18.299c0,6.9 -5.6,12.501 -12.5,12.501s-12.5,-5.601 -12.5,-12.501l0,-18.299c0,-6.9 5.6,-12.5 12.5,-12.5m0,-1.701c-7.8,0 -14.2,6.4 -14.2,14.201l0,18.299c0,7.801 6.4,14.2 14.2,14.2s14.2,-6.399 14.2,-14.2l0,-18.299c0,-7.9 -6.4,-14.201 -14.2,-14.201l0,0z"/>
       <path id="svg_165" d="m240.6,143.5c-6.9,0 -12.5,5.6 -12.5,12.5l0,18.299c0,6.9 5.6,12.501 12.5,12.501s12.5,-5.601 12.5,-12.501l0,-18.299c0,-6.9 -5.6,-12.5 -12.5,-12.5z" fill="#C1272D"/>
      </g>
     </g>
     <g id="svg_166">
      <g id="svg_167">
       <path id="svg_168" d="m565.6,143.5c6.9,0 12.5,5.6 12.5,12.5l0,18.299c0,6.9 -5.6,12.501 -12.5,12.501l0,0c-6.899,0 -12.5,-5.601 -12.5,-12.501l0,-18.299c0,-6.9 5.6,-12.5 12.5,-12.5l0,0m0,-1.701c-7.799,0 -14.199,6.4 -14.199,14.201l0,18.299c0,7.801 6.4,14.2 14.199,14.2c7.801,0 14.201,-6.399 14.201,-14.2l0,-18.299c0,-7.9 -6.401,-14.201 -14.201,-14.201l0,0z"/>
       <path id="svg_169" d="m565.6,143.5c-6.899,0 -12.5,5.6 -12.5,12.5l0,18.299c0,6.9 5.601,12.501 12.5,12.501c6.9,0 12.5,-5.601 12.5,-12.501l0,-18.299c0,-6.9 -5.6,-12.5 -12.5,-12.5z" fill="#C1272D"/>
      </g>
     </g>
     <g id="svg_170">
      <g id="svg_171">
       <path id="svg_172" d="m141.3,247.2c1.4,-2 1.2,-2.899 1.2,-2.899s0.2,-0.9 -1.2,-2.9c-1.4,-2 -15,-13.6 -15.7,-14s-28.5,-2.2 -31.4,1.3s-2.6,15.599 -2.6,15.599s-0.3,12.1 2.6,15.6s30.7,1.7 31.4,1.3c0.7,-0.4 14.3,-12 15.7,-14z" fill="#C1272D"/>
       <path id="svg_173" d="m141.3,247.2c1.4,-2 1.2,-2.899 1.2,-2.899s0.2,-0.9 -1.2,-2.9c-0.9,-1.3 -6.9,-6.6 -11.2,-10.3c-2.1,3.899 -3.4,8.399 -3.4,13.2c0,4.8 1.2,9.3 3.4,13.199c4.3,-3.7 10.3,-9 11.2,-10.3z" opacity="0.25"/>
      </g>
      <g id="svg_174">
       <path id="svg_175" d="m151.1,231.6c2,1.399 2.9,1.2 2.9,1.2s0.9,0.199 2.9,-1.2c2,-1.4 13.6,-15 14,-15.7c0.4,-0.7 2.2,-28.5 -1.3,-31.4c-3.5,-2.899 -15.6,-2.6 -15.6,-2.6s-12.1,-0.3 -15.6,2.6c-3.5,2.9 -1.7,30.7 -1.3,31.4c0.5,0.7 12,14.3 14,15.7z" fill="#C1272D"/>
       <path id="svg_176" d="m151.1,231.6c2,1.399 2.9,1.2 2.9,1.2s0.9,0.199 2.9,-1.2c1.3,-0.9 6.6,-6.9 10.3,-11.2c-3.9,-2.1 -8.4,-3.4 -13.2,-3.4c-4.8,0 -9.3,1.2 -13.2,3.4c3.8,4.3 9,10.3 10.3,11.2z" opacity="0.25"/>
      </g>
      <g id="svg_177">
       <path id="svg_178" d="m213.8,228.8c-2.9,-3.5 -30.7,-1.7 -31.4,-1.301c-0.7,0.4 -14.3,12 -15.7,14s-1.2,2.9 -1.2,2.9s-0.2,0.9 1.2,2.9s15,13.6 15.7,14c0.7,0.399 28.5,2.199 31.4,-1.301c2.9,-3.5 2.6,-15.6 2.6,-15.6s0.3,-12.098 -2.6,-15.598z" fill="#C1272D"/>
       <path id="svg_179" d="m178,231.2c-4.3,3.7 -10.3,9 -11.2,10.3c-1.4,2 -1.2,2.9 -1.2,2.9s-0.2,0.9 1.2,2.9c0.9,1.3 6.9,6.6 11.2,10.3c2.1,-3.9 3.4,-8.4 3.4,-13.2s-1.3,-9.3 -3.4,-13.2z" opacity="0.25"/>
      </g>
      <g id="svg_180">
       <path id="svg_181" d="m156.9,257.1c-2,-1.4 -2.9,-1.2 -2.9,-1.2s-0.9,-0.2 -2.9,1.2c-2,1.399 -13.6,15 -14,15.7c-0.4,0.699 -2.2,28.5 1.3,31.4s15.6,2.6 15.6,2.6s12.1,0.301 15.6,-2.6s1.7,-30.701 1.3,-31.4c-0.4,-0.8 -12,-14.3 -14,-15.7z" fill="#C1272D"/>
       <path id="svg_182" d="m156.9,257.1c-2,-1.4 -2.9,-1.2 -2.9,-1.2s-0.9,-0.2 -2.9,1.2c-1.3,0.899 -6.6,6.899 -10.3,11.2c3.9,2.1 8.4,3.399 13.2,3.399c4.8,0 9.3,-1.2 13.2,-3.399c-3.7,-4.3 -9,-10.3 -10.3,-11.2z" opacity="0.25"/>
      </g>
     </g>
    </g>
    <path id="svg_183" d="m436.7,420.999l-67.9,0c-2.8,0 -4.6,0.602 -4.6,-2.199l0,0c0,-2.801 2.3,-5 5,-5l67.9,0c2.801,0 5,2.301 5,5l0,0c0.1,2.699 -2.6,2.199 -5.4,2.199z" fill="#0B0B0F"/>
    <path id="svg_184" d="m408.4,418.8l-36.5,0c-0.5,0 -0.9,-0.4 -0.9,-0.9l0,0c0,-1.1 0.9,-2 2,-2l34.2,0c1.101,0 2,0.9 2,2l0,0c0.101,0.499 -0.3,0.9 -0.8,0.9z"/>
    <path id="svg_185" d="m430.6,419.601l-4.2,0c-0.9,0 -1.7,-0.801 -1.7,-1.701l0,0c0,-1.6 1.3,-2.799 2.8,-2.799l1.9,0c1.6,0 2.8,1.299 2.8,2.799l0,0c0.101,0.999 -0.6,1.701 -1.6,1.701z"/>
    <g id="svg_186">
     <path id="svg_187" d="m534.9,128c-0.4,-3.201 -3.301,-5.601 -6.5,-5.601l0,0l-125.3,0l0,0l-125.3,0l0,0c-3.2,0 -6.1,2.3 -6.5,5.601c-0.1,0.699 -0.1,1.399 -0.1,2.1l0,127.4c0,8.9 7.2,16.101 16.1,16.101l115.8,0l0,0l115.8,0c8.9,0 16.1,-7.2 16.1,-16.101l0,-127.4c0.1,-0.7 0,-1.4 -0.1,-2.1z" fill="#9E1F20"/>
     <g id="svg_188">
      <path id="svg_189" d="m530.5,124.299c0,-1 -0.8,-1.899 -1.9,-1.899l-125.5,0l0,0l-125.6,0c-1,0 -1.9,0.8 -1.9,1.899l0,6l0,123.2c0,8.601 7,15.601 15.6,15.601l111.9,0l0,0l111.9,0c8.6,0 15.6,-7 15.6,-15.601l0,-123.099l-0.1,-6.101z" fill="#C1272D"/>
      <g id="svg_190" opacity="0.2">
       <path id="svg_191" d="m275.6,253.5c0,8.601 7,15.601 15.6,15.601l111.9,0l0,0l111.9,0c8.6,0 15.6,-7 15.6,-15.601l0,-106.5l-254.9,0l0,106.5l-0.1,0z" fill="url(#SVGID_4_)"/>
      </g>
     </g>
    </g>
   </g>
   <g id="svg_192">
    <g id="svg_193">
     <g id="svg_194">
      <g id="svg_195">
       <path id="svg_196" d="m697.2,90.799c0,0 -32.7,-3.199 -50.601,-3.199c-17.899,0 -48.299,2.4 -48.299,2.4s3.1,-44.701 4.799,-52c1.601,-7.3 7.701,-21.3 16.9,-27.9c9.201,-6.6 12.001,-10.1 22.802,-10.1c10.799,0 25.399,6.4 34.599,21.4c9.1,15 19.8,69.399 19.8,69.399z" fill="#C1272D"/>
       <path id="svg_197" d="m598.801,83.2c0,0 26.1,-4.4 49,-4.4c22.799,0 47.899,4.4 47.899,4.4c1,4.7 1.601,7.6 1.601,7.6s-32.701,-3.2 -50.601,-3.2s-48.3,2.4 -48.3,2.4s0,-2.701 0.401,-6.8z" fill="#9E1F20"/>
      </g>
     </g>
     <g id="svg_198" display="none">
      <g id="svg_199" display="inline">
       <path id="svg_200" d="m697.2,90.799c0,0 -32.7,-3.199 -50.601,-3.199c-17.899,0 -48.299,2.4 -48.299,2.4s3.1,-44.701 4.799,-52c1.601,-7.3 7.701,-21.3 16.9,-27.9c9.201,-6.6 12.001,-10.1 22.802,-10.1c10.799,0 25.399,6.4 34.599,21.4c9.1,15 19.8,69.399 19.8,69.399z" fill="#EDEDED"/>
       <path id="svg_201" d="m598.801,83.2c0,0 26.1,-4.4 49,-4.4c22.799,0 47.899,4.4 47.899,4.4c1,4.7 1.601,7.6 1.601,7.6s-32.701,-3.2 -50.601,-3.2s-48.3,2.4 -48.3,2.4s0,-2.701 0.401,-6.8z" fill="#F5F5F5"/>
      </g>
      <g id="svg_202" opacity="0.08" display="inline">
       <g id="svg_203">
        <path id="svg_204" d="m648.801,65.7c-2.101,1.7 -3.201,2.6 -3.201,2.6c-1.199,1.201 -1.899,2.701 -2,4.5l9.801,0l0,-2.6l-6.301,0c0.301,-0.5 1,-1.199 2.101,-1.9c1.399,-0.899 2.3,-1.6 2.7,-2.1c0.9,-1 1.3,-2.1 1.3,-3.3c0,-1.399 -0.5,-2.5 -1.399,-3.3c-0.9,-0.8 -2.101,-1.2 -3.5,-1.2c-3.101,0 -4.701,1.7 -4.701,5l2.701,0c0,-1.8 0.699,-2.7 2.1,-2.7c1.3,0 2,0.7 2,2.1c0.098,0.999 -0.502,1.999 -1.601,2.9z"/>
       </g>
       <path id="svg_205" d="m631.2,67.2l3,0c1.5,0 2.3,0.6 2.399,1.9c0.101,1.199 0.201,2.5 0.301,3.8l3.3,0l0,-0.4c-0.5,-0.201 -0.7,-0.701 -0.7,-1.5c0,-0.201 0,-0.4 0.1,-0.801l0,-0.699c0,-1.701 -0.6,-2.9 -1.799,-3.5c1.399,-0.5 2.199,-1.6 2.199,-3.4c0,-1.301 -0.4,-2.301 -1.3,-3c-0.8,-0.7 -1.899,-1 -3.2,-1l-7.3,0l0,14.3l3,0l0,-5.7zm0,-6.3l3.7,0c1.4,0 2.1,0.601 2.1,1.899c0,1.301 -0.8,1.9 -2.3,1.9l-3.5,0l0,-3.799z"/>
      </g>
     </g>
    </g>
    <g id="svg_206">
     <g id="svg_207">
      <g id="svg_208">
       <path id="svg_209" d="m108.9,90.799c0,0 32.7,-3.199 50.6,-3.199s48.3,2.4 48.3,2.4s-3.1,-44.7 -4.8,-52c-1.6,-7.3 -7.7,-21.3 -16.9,-27.9c-9.2,-6.7 -12,-10.1 -22.8,-10.1c-10.8,0 -25.4,6.4 -34.6,21.4c-9.1,15 -19.8,69.399 -19.8,69.399z" fill="#C1272D"/>
       <path id="svg_210" d="m207.3,83.2c0,0 -26.1,-4.4 -49,-4.4c-22.8,0 -47.9,4.4 -47.9,4.4c-1,4.7 -1.6,7.6 -1.6,7.6s32.7,-3.199 50.6,-3.199c17.9,0 48.3,2.4 48.3,2.4s0,-2.702 -0.4,-6.801z" fill="#9E1F20"/>
      </g>
     </g>
     <g id="svg_211" display="none">
      <g id="svg_212" display="inline">
       <path id="svg_213" d="m108.9,90.799c0,0 32.7,-3.199 50.6,-3.199s48.3,2.4 48.3,2.4s-3.1,-44.7 -4.8,-52c-1.6,-7.3 -7.7,-21.3 -16.9,-27.9c-9.2,-6.7 -12,-10.1 -22.8,-10.1c-10.8,0 -25.4,6.4 -34.6,21.4c-9.1,15 -19.8,69.399 -19.8,69.399z" fill="#EDEDED"/>
       <path id="svg_214" d="m207.3,83.2c0,0 -26.1,-4.4 -49,-4.4c-22.8,0 -47.9,4.4 -47.9,4.4c-1,4.7 -1.6,7.6 -1.6,7.6s32.7,-3.199 50.6,-3.199c17.9,0 48.3,2.4 48.3,2.4s0,-2.702 -0.4,-6.801z" fill="#F5F5F5"/>
      </g>
      <g id="svg_215" opacity="0.08" display="inline">
       <g id="svg_216">
        <path id="svg_217" d="m173.4,65.7c-2.1,1.7 -3.2,2.6 -3.2,2.6c-1.2,1.201 -1.9,2.701 -2,4.5l9.8,0l0,-2.6l-6.2,0c0.3,-0.5 1,-1.199 2.1,-1.9c1.4,-0.899 2.3,-1.6 2.7,-2.1c0.9,-1 1.3,-2.1 1.3,-3.3c0,-1.399 -0.5,-2.5 -1.4,-3.3c-0.9,-0.8 -2.1,-1.2 -3.5,-1.2c-3.1,0 -4.7,1.7 -4.7,5l2.7,0c0,-1.8 0.7,-2.7 2.1,-2.7c1.3,0 2,0.7 2,2.1c0,0.999 -0.5,1.999 -1.7,2.9z"/>
       </g>
       <polygon id="svg_218" points="164.9,70.1 157.8,70.1 157.8,58.5 154.8,58.5 154.8,72.799 164.9,72.799      "/>
      </g>
     </g>
    </g>
   </g>
  </g>
 </g>
</svg>