<svg width="806.3" height="598.667" xmlns="http://www.w3.org/2000/svg">
 <g>
  <title>background</title>
  <rect x="-1" y="-1" width="808.3" height="600.667" id="canvas_background" fill="none"/>
 </g>

 <g>
  <title>Layer 1</title>
  <g id="Layer_1">
   <g id="svg_1">
    <path fill="#9B4B0A" d="m805.9,508.6l0,0l0,0l0,-0.2c0,-0.1 0,-0.2 0,-0.4c0,-0.1 0,-0.199 0,-0.3c0,-0.399 0,-0.899 0,-1.399c0,0 0,0 0,-0.101c-0.1,-12.399 -0.8,-67.1 -4.6,-87.6c-2.9,-15.5 -17.7,-102.5 -32,-144.6c-9.4,-27.701 -13.101,-53 -17,-64.9c-12,-35.7 -33,-65.7 -33,-65.7s-9.5,-13.1 -10.101,-16.3c-0.6,-3.3 -4.7,-8.6 -4.7,-8.6s-2.3,-0.8 -7.399,-1.7l0,0l0,0l0,-6.9c0,-0.8 -0.4,-1.5 -1.101,-1.9c-4.5,-2.9 -23.399,-13.6 -51.5,-13.6c-26.899,0 -41.1,5.9 -45.1,8c-0.8,0.4 -1.2,1.2 -1.2,2l0,11l0,0c-7.399,1.2 -9.6,2.4 -9.6,2.4s-2.4,2.9 -5.9,4.8c-3.5,1.8 -11.7,1.7 -11.7,1.7l-33.399,0c0,0 -0.601,-0.1 -0.9,0.3c-0.399,0.4 -0.6,2 -0.6,2l-1.6,0c-0.899,-2.3 -3.1,-3.9 -5.699,-4.1c-0.101,0 -0.101,0 -0.2,0l-0.3,0l-125.401,0l0,0l-125.3,0l-0.3,0c-0.101,0 -0.101,0 -0.2,0c-2.5,0.2 -4.8,1.8 -5.7,4.1l-1.6,0c0,0 -0.301,-1.7 -0.601,-2c-0.399,-0.4 -0.899,-0.3 -0.899,-0.3l-33.4,0c0,0 -8.2,0.2 -11.7,-1.7c-3.5,-1.8 -5.899,-4.8 -5.899,-4.8s-2.101,-1.2 -9.601,-2.4l0,0l0,-11c0,-0.9 -0.5,-1.6 -1.2,-2c-4,-2 -18.2,-8 -45.1,-8c-28.2,0 -47,10.7 -51.5,13.6c-0.7,0.4 -1.1,1.1 -1.1,1.9l0,6.9l0,0l0,0c-5.1,1 -7.4,1.7 -7.4,1.7s-4.1,5.3 -4.7,8.6c-0.6,3.3 -10.1,16.3 -10.1,16.3s-21,30 -33,65.7c-4,11.9 -7.7,37.199 -17,64.9c-14.3,42.1 -29.1,129.1 -32,144.6c-3.8,20.5 -4.5,75.2 -4.6,87.6c0,0 0,0 0,0.101c0,0.6 0,1.1 0,1.399c0,0.101 0,0.2 0,0.3c0,0.2 0,0.301 0,0.4l0,0.1l0,0.101l0,0c0,0.1 0,0.1 0,0.1s0,0 0,0.1l0,0c0.2,2.5 3.6,35.7 20.8,59.5l0,0l0,0c0.5,0.7 1.1,1.4 1.6,2.101c0,0 0,0.1 0.1,0.1c0.5,0.7 1.1,1.4 1.6,2l0,0c0.6,0.7 1.1,1.3 1.7,1.9c0.1,0.1 0.1,0.1 0.2,0.2c0.6,0.6 1.1,1.199 1.7,1.8c0,0 0,0 0.1,0.1c0.6,0.601 1.2,1.2 1.8,1.7c0.1,0.1 0.2,0.2 0.3,0.3c0.6,0.5 1.2,1 1.8,1.601l0.1,0.1c0.6,0.5 1.3,1 1.9,1.5c0.2,0.1 0.3,0.2 0.5,0.3c0.7,0.5 1.3,1 2,1.4c31.7,21.5 56.7,14 56.7,14s0,0 0.1,0l0,0c0.1,0 0.1,0 0.2,-0.101c0,0 0,0 0.1,0s0.3,-0.1 0.4,-0.1l0,0c0.2,0 0.3,-0.1 0.5,-0.2l0.1,0c0.2,-0.1 0.4,-0.1 0.7,-0.2c0.1,0 0.1,0 0.2,-0.1c0.3,-0.1 0.5,-0.2 0.8,-0.3l0.1,0c0.3,-0.101 0.6,-0.2 0.9,-0.3c0.1,0 0.1,0 0.2,-0.101c0.3,-0.1 0.7,-0.2 1.1,-0.399c0.1,0 0.2,-0.101 0.3,-0.101c0.4,-0.1 0.8,-0.3 1.2,-0.5c0.1,0 0.1,-0.1 0.2,-0.1c0.4,-0.2 0.8,-0.3 1.2,-0.5c0.1,0 0.2,-0.1 0.2,-0.1c0.4,-0.2 0.9,-0.4 1.4,-0.601c0.1,0 0.2,-0.1 0.3,-0.1c0.5,-0.2 1,-0.4 1.5,-0.7c0.1,0 0.2,-0.1 0.3,-0.1c0.5,-0.2 1,-0.4 1.5,-0.7c0.1,0 0.2,-0.101 0.2,-0.101c0.5,-0.3 1.1,-0.5 1.7,-0.8c0.1,-0.1 0.3,-0.1 0.4,-0.2c0.6,-0.3 1.1,-0.6 1.7,-0.899c0.1,-0.101 0.2,-0.101 0.3,-0.2c0.6,-0.3 1.1,-0.6 1.7,-0.9c0.1,0 0.1,-0.1 0.2,-0.1c0.6,-0.3 1.2,-0.7 1.9,-1.1c0.1,-0.101 0.3,-0.2 0.4,-0.2c0.6,-0.4 1.3,-0.7 1.9,-1.101c0.1,-0.1 0.3,-0.199 0.4,-0.199c0.7,-0.4 1.3,-0.801 2,-1.2c0,0 0.1,0 0.1,-0.101l0,0l0,0c10,-6.399 21.4,-15.899 31.5,-29.6c0.5,-0.7 1,-1.4 1.5,-2.2c0.1,-0.2 0.3,-0.399 0.4,-0.6c0.5,-0.7 1,-1.4 1.4,-2.2c0,-0.1 0.1,-0.1 0.1,-0.2c0.5,-0.8 1.1,-1.7 1.6,-2.5c0.1,-0.2 0.2,-0.3 0.3,-0.5c0.5,-0.8 1,-1.7 1.5,-2.5l0.1,-0.1c0.6,-1 1.1,-1.9 1.7,-2.9c0.1,-0.1 0.1,-0.2 0.2,-0.3c0.5,-1 1.1,-2 1.7,-3l0,0c0.6,-1.1 1.2,-2.2 1.8,-3.3c0,0 0,0 0,-0.1c21.9,-41.599 44.3,-108.799 44.3,-108.799s2.2,-3 5.7,-5.3s6.3,-2.6 6.3,-2.6l1.9,0c13.8,13.5 32.699,21.8 53.5,21.8c20.8,0 39.6,-8.3 53.399,-21.7l36,0c0,2.8 1.8,2.2 4.601,2.2l67.9,0c2.8,0 5.5,0.6 5.5,-2.2l35.9,0c13.8,13.4 32.6,21.7 53.399,21.7c20.801,0 39.7,-8.3 53.5,-21.8l1.9,0c0,0 2.8,0.3 6.3,2.6s5.7,5.3 5.7,5.3s22.5,67.2 44.3,108.801c0,0 0,0 0,0.1c0.601,1.1 1.2,2.2 1.8,3.3l0,0c0.601,1 1.101,2 1.7,3c0.101,0.1 0.101,0.2 0.2,0.3c0.6,1 1.1,2 1.7,2.9l0.1,0.1c0.5,0.9 1,1.7 1.5,2.5c0.101,0.2 0.2,0.3 0.3,0.5c0.5,0.9 1.101,1.7 1.601,2.5c0,0.101 0.1,0.101 0.1,0.2c0.5,0.7 1,1.5 1.4,2.2c0.1,0.2 0.3,0.4 0.399,0.6c0.5,0.7 1,1.5 1.5,2.2c10,13.7 21.5,23.2 31.5,29.6l0,0l0,0c0,0 0.101,0 0.101,0.101c0.7,0.399 1.3,0.8 2,1.2c0.1,0.1 0.3,0.199 0.399,0.199c0.601,0.4 1.301,0.801 1.9,1.101c0.1,0.1 0.3,0.2 0.4,0.2c0.6,0.399 1.3,0.699 1.899,1.1c0.101,0 0.101,0.1 0.2,0.1c0.6,0.301 1.2,0.601 1.7,0.9c0.1,0.1 0.2,0.1 0.3,0.2c0.6,0.3 1.2,0.6 1.7,0.899c0.1,0.101 0.3,0.101 0.399,0.2c0.601,0.3 1.101,0.5 1.7,0.8c0.101,0 0.2,0.101 0.2,0.101c0.5,0.2 1,0.5 1.5,0.7c0.1,0 0.2,0.1 0.3,0.1c0.5,0.2 1,0.4 1.5,0.7c0.101,0 0.2,0.1 0.3,0.1c0.5,0.2 0.9,0.4 1.4,0.601c0.1,0 0.2,0.1 0.2,0.1c0.4,0.2 0.8,0.3 1.2,0.5c0.1,0 0.1,0.1 0.2,0.1c0.399,0.2 0.8,0.3 1.199,0.5c0.101,0 0.2,0.101 0.301,0.101c0.399,0.1 0.699,0.3 1.1,0.399c0.1,0 0.1,0 0.2,0.101c0.3,0.1 0.6,0.199 0.899,0.3l0.101,0c0.3,0.1 0.6,0.2 0.8,0.3c0.1,0 0.1,0 0.2,0.1c0.2,0.101 0.5,0.101 0.7,0.2l0.1,0c0.2,0.101 0.4,0.101 0.5,0.2l0,0c0.2,0 0.3,0.1 0.4,0.1c0,0 0,0 0.1,0s0.2,0.101 0.2,0.101l0,0l0.1,0c0,0 25,7.5 56.7,-14c0.7,-0.5 1.3,-0.9 2,-1.4c0.2,-0.1 0.3,-0.2 0.5,-0.3c0.6,-0.5 1.3,-1 1.9,-1.5l0.1,-0.1c0.6,-0.5 1.2,-1 1.8,-1.601c0.1,-0.1 0.2,-0.2 0.3,-0.3c0.601,-0.6 1.2,-1.1 1.8,-1.7c0,0 0,0 0.101,-0.1c0.6,-0.601 1.1,-1.2 1.7,-1.8c0.1,-0.101 0.1,-0.101 0.199,-0.2c0.601,-0.601 1.101,-1.3 1.7,-1.9l0,0c0.601,-0.7 1.101,-1.3 1.601,-2c0,0 0,-0.1 0.1,-0.1c0.5,-0.7 1.1,-1.4 1.6,-2.101l0,0l0,0c17.2,-23.8 20.601,-57 20.801,-59.5l0,0c0,-0.1 0,-0.1 0,-0.1s-0.399,-0.003 -0.399,-0.103z" id="svg_2"/>
    <path fill="#9B4B0A" d="m608.7,89.3c0.5,0 1.101,-0.1 1.601,-0.1c4.399,-0.3 9.6,-0.6 15,-0.9c1.3,-0.1 2.699,-0.1 4,-0.2c2.699,-0.1 5.399,-0.2 8,-0.3c1.3,0 2.6,-0.1 3.8,-0.1s2.399,0 3.6,-0.1c0.601,0 1.2,0 1.7,0c17.9,0 50.6,3.2 50.6,3.2l0,0c0,0 0,-0.1 -0.1,-0.3l0,-0.1c0,-0.1 0,-0.1 0,-0.2l0,0c0,-0.1 0,-0.2 -0.1,-0.3c0,-0.1 0,-0.1 0,-0.2l0,-0.1c0,-0.2 -0.101,-0.5 -0.2,-0.8l0,-0.1c0,-0.1 -0.101,-0.3 -0.101,-0.4c0,0 0,0 0,-0.1c-2.3,-11 -11.399,-53.8 -19.399,-66.8c-9.101,-15 -23.7,-21.4 -34.601,-21.4c-10.899,0 -13.6,3.4 -22.699,10.1c-9.101,6.7 -15.301,20.6 -16.9,27.9c-1.2,5.5 -3.3,32.4 -4.3,45.2l0,0c0,0.1 0,0.3 0,0.4c0,0.1 0,0.1 0,0.2s0,0.3 0,0.4c0,0.1 0,0.3 0,0.4c0,0.1 0,0.3 0,0.4c0,0.1 0,0.2 0,0.3l0,0.1c0,0.2 0,0.4 0,0.6l0,0c0,0.6 -0.101,1.1 -0.101,1.6c0,0.2 0,0.3 0,0.5l0,0c-0.1,1 -0.1,1.6 -0.1,1.8c0,0.1 0,0.1 0,0.1s1.9,-0.1 5,-0.4c1.3,-0.1 3.2,-0.2 5.3,-0.3z" id="svg_3"/>
    <path fill="#9B4B0A" d="m207.7,90l0,0c0,-0.3 -0.1,-0.9 -0.1,-1.9l0,0c0,-0.2 0,-0.3 0,-0.5c0,-0.5 -0.101,-1 -0.101,-1.6l0,0c0,-0.2 0,-0.4 0,-0.6l0,-0.1c0,-0.1 0,-0.2 0,-0.3s0,-0.3 0,-0.4c0,-0.1 0,-0.3 0,-0.4c0,-0.1 0,-0.3 0,-0.4s0,-0.2 0,-0.2c0,-0.1 0,-0.2 0,-0.3c-1,-12.8 -3.1,-39.7 -4.3,-45.2c-1.6,-7.3 -7.7,-21.3 -16.9,-27.9c-9.2,-6.6 -12.2,-10.2 -23,-10.2c-10.8,0 -25.4,6.4 -34.6,21.4c-8,13 -17.1,55.8 -19.4,66.8c0,0 0,0 0,0.1c0,0.2 -0.1,0.3 -0.1,0.4l0,0.1c-0.1,0.3 -0.1,0.6 -0.2,0.8l0,0.1c0,0.1 0,0.1 0,0.2s0,0.2 -0.1,0.3l0,0c0,0.1 0,0.1 0,0.2l0,0.1c0,0.1 0,0.2 -0.1,0.3l0,0c0,0 32.7,-3.2 50.6,-3.2s48.301,2.4 48.301,2.4z" id="svg_4"/>
   </g>
   <g id="svg_5">
    <path fill="#FFFFFF" d="m233.287,251.018l30.83,0l0,-12.236l-26.045,0l0,-5.4l26.045,0l0,-12.339c-8.636,0.342 -17.409,0.627 -26.318,0.854c-0.273,-1.914 -0.615,-3.782 -1.025,-5.605c23.288,-0.364 42.178,-1.185 56.67,-2.461l0.889,5.605c-8.021,0.502 -16.179,0.945 -24.473,1.333l0,12.612l24.814,0l0,5.4l-24.814,0l0,12.236l30.693,0l0,5.4l-30.693,0l0,12.578c0,5.537 -2.826,8.34 -8.477,8.408c-2.871,0 -6.859,-0.023 -11.963,-0.068c-0.228,-2.097 -0.593,-4.17 -1.094,-6.221c5.104,0.364 8.955,0.547 11.553,0.547c2.825,0 4.238,-1.527 4.238,-4.58l0,-10.664l-30.83,0l0,-5.399z" id="svg_6"/>
    <path fill="#FFFFFF" d="m317.505,240.491l1.914,-1.914c3.235,2.917 6.084,5.583 8.545,7.998l-3.623,3.76c-1.687,-1.959 -3.965,-4.443 -6.836,-7.451l0,35.752l-4.717,0l0,-35.479c-2.233,7.064 -4.877,12.897 -7.93,17.5c-0.593,-1.959 -1.322,-3.965 -2.188,-6.016c4.739,-7.474 8.089,-15.563 10.049,-24.268l-9.57,0l0,-4.58l9.639,0l0,-13.535l4.717,0l0,13.535l8.887,0l0,4.58l-8.887,0l0,10.118zm41.426,21.67c-2.963,-4.146 -6.518,-8.636 -10.664,-13.467c-2.37,6.198 -6.176,11.621 -11.416,16.27c-0.775,-1.048 -1.641,-2.142 -2.598,-3.281l0,16.748l-5.195,0l0,-46.826l16.953,0c0.045,-2.962 0.091,-6.448 0.137,-10.459l-19.482,0l0,-4.785l43.887,0l0,4.785l-19.141,0c-0.046,3.691 -0.114,7.178 -0.205,10.459l17.158,0l0,38.76c0,4.876 -2.393,7.337 -7.178,7.383c-2.598,0.045 -6.016,0.022 -10.254,-0.068c-0.229,-1.459 -0.57,-3.145 -1.025,-5.059c3.965,0.318 6.995,0.455 9.092,0.41c2.779,0 4.17,-1.162 4.17,-3.486l0,-11.006l-4.239,3.622zm-24.677,-2.393c6.836,-5.97 10.687,-13.899 11.553,-23.789l-11.553,0l0,23.789zm15.654,-16.68c4.329,4.648 8.75,9.707 13.262,15.176l0,-22.285l-12.168,0c-0.183,2.507 -0.547,4.877 -1.094,7.109z" id="svg_7"/>
    <path fill="#FFFFFF" d="m440.962,268.108c-1.275,1.549 -2.553,3.235 -3.828,5.059c-12.008,-5.992 -21.236,-13.74 -27.686,-23.242l0,28.574l-5.331,0l0,-28.506c-6.928,9.184 -16.179,17.182 -27.754,23.994c-0.866,-1.23 -2.097,-2.758 -3.691,-4.58c12.373,-6.494 22.148,-14.31 29.326,-23.447l-28.232,0l0,-5.059l30.352,0l0,-12.852l-26.318,0l0,-5.059l26.318,0l0,-11.689l5.331,0l0,11.689l26.592,0l0,5.059l-26.592,0l0,12.852l30.352,0l0,5.059l-28.438,0c7.337,9.798 17.202,17.181 29.599,22.148z" id="svg_8"/>
    <path fill="#FFFFFF" d="m470.766,271.868l14.014,0.342l26.113,-0.615c-0.775,1.822 -1.527,3.577 -2.256,5.264l-23.721,0.273l-14.766,-0.342c-7.338,-0.092 -12.828,-2.689 -16.475,-7.793c-1.322,1.048 -3.988,3.965 -7.998,8.75l-2.939,-5.811c2.848,-2.574 5.674,-5.059 8.477,-7.451l0,-23.857l-7.793,0l0,-4.99l13.125,0l0,29.839c3.327,4.055 8.067,6.186 14.219,6.391zm-19.619,-59.268c3.145,3.965 6.176,8.044 9.092,12.236l-4.854,3.418c-2.689,-4.283 -5.561,-8.521 -8.613,-12.715l4.375,-2.939zm10.869,41.699l22.969,0l0,-9.502l-19.893,0l0,-4.854c2.779,-4.854 5.309,-10.003 7.588,-15.449l-9.844,0l0,-4.785l11.758,0c1.094,-2.871 2.119,-5.811 3.076,-8.818l5.742,1.23c-0.98,2.575 -1.982,5.104 -3.008,7.588l27.959,0l0,4.785l-29.941,0c-2.324,5.424 -4.717,10.596 -7.178,15.518l13.74,0l0,-11.826l5.469,0l0,11.826l17.5,0l0,4.785l-17.5,0l0,9.502l19.414,0l0,4.785l-19.414,0l0,11.279l-5.469,0l0,-11.279l-22.969,0l0,-4.785l0.001,0z" id="svg_9"/>
    <path fill="#FFFFFF" d="m512.876,248.01c3.236,-0.889 6.381,-1.789 9.434,-2.7l0,-15.62l-8.613,0l0,-4.922l8.613,0l0,-12.783l5.059,0l0,12.783l7.861,0l0,4.922l-7.861,0l0,14.048c2.164,-0.684 4.283,-1.378 6.357,-2.085c0.045,2.051 0.182,3.828 0.41,5.332c-2.348,0.752 -4.604,1.492 -6.768,2.222l0,21.089c0,4.922 -2.211,7.405 -6.631,7.451c-1.686,0.045 -3.828,0.022 -6.426,-0.068c-0.182,-1.869 -0.455,-3.76 -0.82,-5.674c2.734,0.273 4.672,0.41 5.811,0.41c2.006,0 3.008,-1.208 3.008,-3.623l0,-17.91c-3.121,1.049 -6.039,2.051 -8.75,3.008l-0.684,-5.88zm18.593,25.498c8.887,-1.299 16.121,-3.441 21.705,-6.426c-4.262,-1.914 -8.83,-3.919 -13.707,-6.016c1.959,-2.529 3.771,-5.059 5.436,-7.588l-11.246,0l0,-4.58l14.117,0c1.457,-2.461 2.791,-4.922 3.998,-7.383l5.059,2.119c-1.094,1.823 -2.176,3.578 -3.246,5.264l26.283,0l0,4.58l-8.988,0c-1.801,5.014 -4.467,9.24 -7.998,12.681c5.811,2.415 11.449,4.819 16.918,7.212l-3.008,5.059c-5.127,-2.712 -11.166,-5.674 -18.115,-8.887c-6.107,4.146 -14.311,7.2 -24.609,9.16c-0.64,-1.503 -1.505,-3.236 -2.599,-5.195zm2.393,-37.597l26.627,0c2.893,-4.01 5.457,-7.77 7.689,-11.279l5.127,2.803c-2.369,2.849 -4.773,5.674 -7.211,8.477l14.252,0l0,4.58l-46.484,0l0,-4.581zm2.666,-16.612l19.313,0c-1.072,-2.073 -2.199,-4.124 -3.385,-6.152l4.58,-2.119c1.459,2.461 2.848,4.945 4.17,7.451l-1.742,0.82l19.242,0l0,4.58l-42.178,0l0,-4.58zm6.152,8.067l3.965,-2.666c2.143,2.507 4.215,5.15 6.221,7.93l-4.375,2.939c-1.733,-2.825 -3.668,-5.56 -5.811,-8.203zm3.897,32.197c3.805,1.504 7.531,3.008 11.178,4.512c3.576,-2.894 6.117,-6.426 7.621,-10.596l-14.73,0c-1.392,2.119 -2.747,4.148 -4.069,6.084z" id="svg_10"/>
   </g>
   <g id="svg_11">
    <path fill="#FFFFFF" d="m280.24,364.766c-4.258,-4.975 -6.387,-11.102 -6.387,-18.379c0,-7.592 2.161,-13.842 6.484,-18.75l2.051,0c-4.401,5.064 -6.602,11.301 -6.602,18.711c0,6.992 2.174,13.131 6.523,18.418l-2.069,0z" id="svg_12"/>
    <path fill="#FFFFFF" d="m288.228,348.087l-0.371,-2.188c0.729,-0.209 1.842,-0.535 3.34,-0.977c0.938,-0.273 1.641,-0.482 2.109,-0.625l0,-9.492l-5,0l0,-1.914l5,0l0,-7.637l2.07,0l0,7.637l4.199,0l0,1.914l-4.199,0l0,8.848c0.364,-0.117 0.931,-0.301 1.699,-0.547c1.133,-0.352 1.979,-0.625 2.539,-0.82c0,0.768 0.059,1.465 0.176,2.09c-0.547,0.156 -1.374,0.41 -2.48,0.762c-0.859,0.26 -1.504,0.455 -1.934,0.586l0,12.695c0.117,2.461 -1.068,3.711 -3.555,3.75c-0.938,0.051 -1.927,0.078 -2.969,0.078c-0.104,-0.809 -0.234,-1.551 -0.391,-2.227c0.794,0.078 1.771,0.117 2.93,0.117c1.328,0.051 1.966,-0.535 1.914,-1.758l0,-11.973c-2.252,0.743 -3.944,1.302 -5.077,1.681zm12.949,-5.958l5.957,0c1.016,-2.215 1.927,-4.467 2.734,-6.758l2.148,0.645c-0.078,0.168 -0.189,0.43 -0.332,0.781c-1.003,2.383 -1.771,4.16 -2.305,5.332l16.113,0l0,1.953l-4.824,0c-1.237,4.518 -3.171,8.066 -5.801,10.645c3.45,1.875 6.914,3.781 10.391,5.723l-1.406,1.875c-4.714,-2.826 -8.229,-4.877 -10.547,-6.152c-3.112,2.539 -7.728,4.727 -13.848,6.563c-0.248,-0.508 -0.658,-1.191 -1.23,-2.051c5.729,-1.445 10.098,-3.309 13.105,-5.586c-2.5,-1.42 -5.326,-2.969 -8.477,-4.648c1.055,-1.668 2.188,-3.789 3.398,-6.367l-5.078,0l0,-1.955l0.002,0zm9.375,-16.074l1.875,-0.84c0.911,1.549 1.816,3.203 2.715,4.961l-1.719,0.762l11.191,0l0,6.426l-2.031,0l0,-4.473l-18.672,0l0,4.473l-2.051,0l0,-6.426l11.25,0c-0.599,-1.289 -1.451,-2.918 -2.558,-4.883zm-4.922,23.75c0.664,0.363 1.699,0.918 3.105,1.66c1.861,0.977 3.274,1.73 4.238,2.266c2.564,-2.371 4.395,-5.586 5.488,-9.648l-10,0c-0.923,1.978 -1.868,3.886 -2.831,5.722z" id="svg_13"/>
    <path fill="#FFFFFF" d="m328.697,346.133c-0.3,-0.848 -0.619,-1.648 -0.957,-2.402c3.919,-5.352 7.051,-11.473 9.395,-18.359l2.168,0.684c-1.198,3.203 -2.409,6.055 -3.633,8.555l0,28.164l-2.09,0l0,-24.16c-1.68,2.968 -3.308,5.473 -4.883,7.518zm11.855,12.325l11.543,0l0,-13.281l-12.227,0l0,-2.051l12.227,0l0,-12.637c-3.242,0.234 -6.706,0.449 -10.391,0.645c-0.053,-0.73 -0.156,-1.414 -0.313,-2.051c8.242,-0.379 15.677,-0.938 22.305,-1.68l0.449,2.09c-3.607,0.363 -6.901,0.645 -9.883,0.84l0,12.793l11.563,0l0,2.051l-11.563,0l0,13.281l10.996,0l0,1.992l-24.707,0l0,-1.992l0.001,0z" id="svg_14"/>
    <path fill="#FFFFFF" d="m372.349,353.653l1.914,0.918c-1.654,2.643 -3.132,4.83 -4.434,6.563c-0.625,-0.457 -1.244,-0.859 -1.855,-1.211c1.485,-1.772 2.943,-3.862 4.375,-6.27zm12.676,-28.242l1.992,-0.488c0.416,1.211 0.846,2.52 1.289,3.926l14.668,0l0,1.719l-7.793,0l1.484,0.762c-0.053,0.064 -0.144,0.176 -0.273,0.332c-1.146,1.432 -2.031,2.492 -2.656,3.184l11.68,0l0,1.719l-37.305,0l0,-1.719l11.543,0c-1.042,-1.289 -1.986,-2.436 -2.832,-3.438l1.152,-0.84l-7.422,0l0,-1.719l15.586,0c-0.209,-0.743 -0.58,-1.889 -1.113,-3.438zm-11.875,14.121l26.953,0l0,11.68l-26.953,0l0,-11.68zm2.07,1.719l0,3.242l22.793,0l0,-3.242l-22.793,0zm0,4.921l0,3.32l22.793,0l0,-3.32l-22.793,0zm2.325,7.11l2.07,0l0,3.496c-0.014,1.223 0.201,2.018 0.645,2.383c0.403,0.391 1.295,0.578 2.676,0.566l7.617,0c2.227,0.117 3.502,-0.625 3.828,-2.227c0.234,-0.912 0.462,-1.992 0.684,-3.242c0.521,0.246 1.185,0.5 1.992,0.762c-0.234,1.354 -0.502,2.461 -0.801,3.32c-0.573,2.227 -2.305,3.301 -5.195,3.223l-8.711,0c-1.836,0.012 -3.093,-0.313 -3.77,-0.977c-0.703,-0.639 -1.049,-1.816 -1.035,-3.535l0,-3.769zm4.121,-19.278l-1.289,0.84l10.918,0c0.95,-1.133 2.031,-2.559 3.242,-4.277l-15.84,0c1.25,1.393 2.239,2.539 2.969,3.437zm2.441,19.043l1.523,-1.27c1.797,1.652 3.274,3.053 4.434,4.199l-1.641,1.387c-0.951,-1.015 -2.389,-2.454 -4.316,-4.316zm15.508,1.329l1.68,-1.133c1.419,1.719 2.916,3.625 4.492,5.723l-1.797,1.25c-1.289,-1.837 -2.748,-3.784 -4.375,-5.84z" id="svg_15"/>
    <path fill="#FFFFFF" d="m408.774,338.926c-0.324,-0.457 -0.748,-0.977 -1.27,-1.563c2.137,-3.309 3.789,-7.422 4.961,-12.344l1.914,0.391c-0.664,2.383 -1.25,4.25 -1.758,5.605l5.527,0l0,1.719l-6.211,0c-0.897,2.2 -1.952,4.265 -3.163,6.192zm-0.801,5.762l4.199,0l0,-5.234l-2.031,0l0,-1.68l7.363,0l0,1.68l-3.438,0l0,5.234l4.551,0l0,1.719l-4.551,0l0,10c1.316,-1.277 2.605,-2.566 3.867,-3.867c0.365,0.793 0.672,1.393 0.918,1.797c-1.197,1.094 -2.818,2.648 -4.863,4.668c-0.299,0.299 -0.742,0.807 -1.328,1.523l-1.367,-1.309c0.613,-0.717 0.906,-1.518 0.879,-2.402l0,-10.41l-4.199,0l0,-1.719zm26.602,16.367c-5.715,-0.223 -9.596,-1.688 -11.641,-4.395c-0.949,1.77 -2.375,3.756 -4.277,5.957c-0.338,-0.391 -0.859,-0.859 -1.563,-1.406c2.293,-2.527 3.842,-4.662 4.648,-6.406c-1.016,-1.824 -1.979,-4.434 -2.891,-7.832l1.738,-0.605c0.664,2.512 1.367,4.57 2.109,6.172c0.809,-2.162 1.381,-5.443 1.719,-9.844l-5.039,0l0,-1.973l5.527,-10.273l-5.566,0l0,-1.758l7.52,0l0,1.953l-5.469,10.293l4.863,0l0,1.758c-0.402,5.168 -1.184,9.141 -2.344,11.914c1.758,2.916 5.438,4.439 11.035,4.57c1.889,0.09 3.926,0.137 6.113,0.137c1.264,0 2.787,-0.02 4.57,-0.059c-0.299,0.625 -0.539,1.289 -0.723,1.992c-4.071,-0.013 -7.517,-0.078 -10.329,-0.195zm-5.664,-30.41l0,-1.68l5.195,0l0,-3.867l1.875,0l0,3.867l6.875,0l0,5.449l2.598,0l0,1.719l-2.598,0l0,5.566l-6.875,0l0,4.023l7.285,0l0,1.68l-7.285,0l0,3.887l8.164,0l0,1.719l-8.164,0l0,4.316l-1.875,0l0,-4.316l-6.797,0l0,-1.719l6.797,0l0,-3.887l-5.879,0l0,-1.68l5.879,0l0,-4.022l-5.195,0l0,-1.68l5.195,0l0,-3.887l-7.09,0l0,-1.719l7.09,0l0,-3.77l-5.195,0l0,0.001zm12.109,0l-5.039,0l0,3.77l5.039,0l0,-3.77zm-5.039,5.488l0,3.887l5.039,0l0,-3.887l-5.039,0z" id="svg_16"/>
    <path fill="#FFFFFF" d="m450.063,328.008l34.16,0l0,2.129l-8.008,0l0,12.266l9.688,0l0,2.168l-9.688,0l0,18.008l-2.227,0l0,-18.008l-13.242,0c0.027,0.48 0.039,0.977 0.039,1.484c0,7.76 -3.41,13.359 -10.234,16.797c-0.494,-0.691 -1.027,-1.355 -1.602,-1.992c3.855,-2.148 6.381,-4.305 7.578,-6.465c1.328,-2.137 2,-5.41 2.012,-9.824l-10.195,0l0,-2.168l10.195,0l0,-12.266l-8.477,0l0,-2.129l0.001,0zm10.723,2.129l0,12.266l13.203,0l0,-12.266l-13.203,0z" id="svg_17"/>
    <path fill="#FFFFFF" d="m502.973,356.739l-1.543,1.68c-1.797,-1.668 -3.346,-3.08 -4.648,-4.238c-1.613,2.473 -4.146,5.148 -7.598,8.027c-0.313,-0.404 -0.82,-0.965 -1.523,-1.68c3.398,-2.734 5.906,-5.332 7.52,-7.793c-0.949,-0.848 -2.441,-2.137 -4.473,-3.867c-0.586,-0.508 -1.027,-0.887 -1.328,-1.133c0.951,-3.516 1.83,-7.586 2.637,-12.207l-4.199,0l0,-1.953l4.531,0c0.469,-3.061 0.867,-5.834 1.191,-8.32l2.207,0.234c-0.508,3.307 -0.949,6.002 -1.328,8.086l7.402,0l0,2.031c-0.625,7.682 -1.934,13.254 -3.926,16.719c1.264,1.054 2.957,2.525 5.078,4.414zm-3.222,-21.211l-5.645,0c-0.832,4.492 -1.672,8.359 -2.52,11.602c0.223,0.182 0.547,0.449 0.977,0.801c1.59,1.289 2.807,2.291 3.652,3.008c1.85,-3.349 3.028,-8.485 3.536,-15.411zm6.718,3.125c1.043,-0.039 2.715,-0.111 5.02,-0.215c2.969,-0.131 6.094,-0.248 9.375,-0.352c-1.223,-2.059 -2.492,-4.109 -3.809,-6.152l1.719,-1.074c2.227,3.229 4.5,6.895 6.816,10.996l-1.973,1.113c-0.586,-1.094 -1.133,-2.078 -1.641,-2.949c-3.879,0.078 -8.678,0.26 -14.395,0.547c-0.117,0.012 -0.299,0.025 -0.547,0.039c-1.301,0.064 -2.227,0.176 -2.773,0.332l-1.152,-2.129c0.938,-0.613 1.816,-1.504 2.637,-2.676c2.422,-3.398 4.584,-7.09 6.484,-11.074l2.188,0.801c-2.734,4.791 -5.382,9.055 -7.949,12.793zm-1.367,7.324l17.715,0l0,16.797l-2.07,0l0,-2.676l-13.574,0l0,2.676l-2.07,0l0,-16.797l-0.001,0zm2.07,1.875l0,10.352l13.574,0l0,-10.352l-13.574,0z" id="svg_18"/>
    <path fill="#FFFFFF" d="m533.325,364.766l-2.07,0c4.35,-5.287 6.523,-11.426 6.523,-18.418c0,-7.41 -2.199,-13.646 -6.602,-18.711l2.07,0c4.311,4.934 6.465,11.184 6.465,18.75c0.001,7.305 -2.128,13.43 -6.386,18.379z" id="svg_19"/>
   </g>
  </g>
 </g>
</svg>